%TF.GenerationSoftware,KiCad,Pcbnew,5.1.7-a382d34a8~87~ubuntu16.04.1*%
%TF.CreationDate,2020-10-08T21:47:55+02:00*%
%TF.ProjectId,ShiftIn-Board,53686966-7449-46e2-9d42-6f6172642e6b,rev?*%
%TF.SameCoordinates,Original*%
%TF.FileFunction,Legend,Bot*%
%TF.FilePolarity,Positive*%
%FSLAX46Y46*%
G04 Gerber Fmt 4.6, Leading zero omitted, Abs format (unit mm)*
G04 Created by KiCad (PCBNEW 5.1.7-a382d34a8~87~ubuntu16.04.1) date 2020-10-08 21:47:55*
%MOMM*%
%LPD*%
G01*
G04 APERTURE LIST*
%ADD10C,0.150000*%
G04 APERTURE END LIST*
D10*
X152883333Y-65492380D02*
X152216666Y-65492380D01*
X152645238Y-66492380D01*
X151407142Y-65825714D02*
X151407142Y-66492380D01*
X151645238Y-65444761D02*
X151883333Y-66159047D01*
X151264285Y-66159047D01*
X150883333Y-66492380D02*
X150883333Y-65492380D01*
X150883333Y-65968571D02*
X150311904Y-65968571D01*
X150311904Y-66492380D02*
X150311904Y-65492380D01*
X149264285Y-66397142D02*
X149311904Y-66444761D01*
X149454761Y-66492380D01*
X149550000Y-66492380D01*
X149692857Y-66444761D01*
X149788095Y-66349523D01*
X149835714Y-66254285D01*
X149883333Y-66063809D01*
X149883333Y-65920952D01*
X149835714Y-65730476D01*
X149788095Y-65635238D01*
X149692857Y-65540000D01*
X149550000Y-65492380D01*
X149454761Y-65492380D01*
X149311904Y-65540000D01*
X149264285Y-65587619D01*
X148311904Y-66492380D02*
X148883333Y-66492380D01*
X148597619Y-66492380D02*
X148597619Y-65492380D01*
X148692857Y-65635238D01*
X148788095Y-65730476D01*
X148883333Y-65778095D01*
X147454761Y-65492380D02*
X147645238Y-65492380D01*
X147740476Y-65540000D01*
X147788095Y-65587619D01*
X147883333Y-65730476D01*
X147930952Y-65920952D01*
X147930952Y-66301904D01*
X147883333Y-66397142D01*
X147835714Y-66444761D01*
X147740476Y-66492380D01*
X147550000Y-66492380D01*
X147454761Y-66444761D01*
X147407142Y-66397142D01*
X147359523Y-66301904D01*
X147359523Y-66063809D01*
X147407142Y-65968571D01*
X147454761Y-65920952D01*
X147550000Y-65873333D01*
X147740476Y-65873333D01*
X147835714Y-65920952D01*
X147883333Y-65968571D01*
X147930952Y-66063809D01*
X146454761Y-65492380D02*
X146930952Y-65492380D01*
X146978571Y-65968571D01*
X146930952Y-65920952D01*
X146835714Y-65873333D01*
X146597619Y-65873333D01*
X146502380Y-65920952D01*
X146454761Y-65968571D01*
X146407142Y-66063809D01*
X146407142Y-66301904D01*
X146454761Y-66397142D01*
X146502380Y-66444761D01*
X146597619Y-66492380D01*
X146835714Y-66492380D01*
X146930952Y-66444761D01*
X146978571Y-66397142D01*
X145264285Y-66444761D02*
X145121428Y-66492380D01*
X144883333Y-66492380D01*
X144788095Y-66444761D01*
X144740476Y-66397142D01*
X144692857Y-66301904D01*
X144692857Y-66206666D01*
X144740476Y-66111428D01*
X144788095Y-66063809D01*
X144883333Y-66016190D01*
X145073809Y-65968571D01*
X145169047Y-65920952D01*
X145216666Y-65873333D01*
X145264285Y-65778095D01*
X145264285Y-65682857D01*
X145216666Y-65587619D01*
X145169047Y-65540000D01*
X145073809Y-65492380D01*
X144835714Y-65492380D01*
X144692857Y-65540000D01*
X144264285Y-66492380D02*
X144264285Y-65492380D01*
X144264285Y-65968571D02*
X143692857Y-65968571D01*
X143692857Y-66492380D02*
X143692857Y-65492380D01*
X143216666Y-66492380D02*
X143216666Y-65492380D01*
X142407142Y-65968571D02*
X142740476Y-65968571D01*
X142740476Y-66492380D02*
X142740476Y-65492380D01*
X142264285Y-65492380D01*
X142026190Y-65492380D02*
X141454761Y-65492380D01*
X141740476Y-66492380D02*
X141740476Y-65492380D01*
X140359523Y-66492380D02*
X140359523Y-65492380D01*
X139883333Y-66492380D02*
X139883333Y-65492380D01*
X139311904Y-66492380D01*
X139311904Y-65492380D01*
M02*
