%TF.GenerationSoftware,KiCad,Pcbnew,5.1.7-a382d34a8~87~ubuntu16.04.1*%
%TF.CreationDate,2020-10-06T20:10:27+02:00*%
%TF.ProjectId,ShiftIn-Board,53686966-7449-46e2-9d42-6f6172642e6b,rev?*%
%TF.SameCoordinates,Original*%
%TF.FileFunction,Copper,L1,Top*%
%TF.FilePolarity,Positive*%
%FSLAX46Y46*%
G04 Gerber Fmt 4.6, Leading zero omitted, Abs format (unit mm)*
G04 Created by KiCad (PCBNEW 5.1.7-a382d34a8~87~ubuntu16.04.1) date 2020-10-06 20:10:27*
%MOMM*%
%LPD*%
G01*
G04 APERTURE LIST*
%TA.AperFunction,ComponentPad*%
%ADD10O,1.700000X1.700000*%
%TD*%
%TA.AperFunction,ComponentPad*%
%ADD11R,1.700000X1.700000*%
%TD*%
%TA.AperFunction,ViaPad*%
%ADD12C,0.800000*%
%TD*%
%TA.AperFunction,Conductor*%
%ADD13C,0.250000*%
%TD*%
%TA.AperFunction,Conductor*%
%ADD14C,0.254000*%
%TD*%
%TA.AperFunction,Conductor*%
%ADD15C,0.100000*%
%TD*%
G04 APERTURE END LIST*
%TO.P,U1,16*%
%TO.N,VCC*%
%TA.AperFunction,SMDPad,CuDef*%
G36*
G01*
X139837500Y-59780000D02*
X139562500Y-59780000D01*
G75*
G02*
X139425000Y-59642500I0J137500D01*
G01*
X139425000Y-58317500D01*
G75*
G02*
X139562500Y-58180000I137500J0D01*
G01*
X139837500Y-58180000D01*
G75*
G02*
X139975000Y-58317500I0J-137500D01*
G01*
X139975000Y-59642500D01*
G75*
G02*
X139837500Y-59780000I-137500J0D01*
G01*
G37*
%TD.AperFunction*%
%TO.P,U1,15*%
%TO.N,Net-(J1-Pad4)*%
%TA.AperFunction,SMDPad,CuDef*%
G36*
G01*
X141107500Y-59780000D02*
X140832500Y-59780000D01*
G75*
G02*
X140695000Y-59642500I0J137500D01*
G01*
X140695000Y-58317500D01*
G75*
G02*
X140832500Y-58180000I137500J0D01*
G01*
X141107500Y-58180000D01*
G75*
G02*
X141245000Y-58317500I0J-137500D01*
G01*
X141245000Y-59642500D01*
G75*
G02*
X141107500Y-59780000I-137500J0D01*
G01*
G37*
%TD.AperFunction*%
%TO.P,U1,14*%
%TO.N,Net-(J3-Pad4)*%
%TA.AperFunction,SMDPad,CuDef*%
G36*
G01*
X142377500Y-59780000D02*
X142102500Y-59780000D01*
G75*
G02*
X141965000Y-59642500I0J137500D01*
G01*
X141965000Y-58317500D01*
G75*
G02*
X142102500Y-58180000I137500J0D01*
G01*
X142377500Y-58180000D01*
G75*
G02*
X142515000Y-58317500I0J-137500D01*
G01*
X142515000Y-59642500D01*
G75*
G02*
X142377500Y-59780000I-137500J0D01*
G01*
G37*
%TD.AperFunction*%
%TO.P,U1,13*%
%TO.N,Net-(J3-Pad3)*%
%TA.AperFunction,SMDPad,CuDef*%
G36*
G01*
X143647500Y-59780000D02*
X143372500Y-59780000D01*
G75*
G02*
X143235000Y-59642500I0J137500D01*
G01*
X143235000Y-58317500D01*
G75*
G02*
X143372500Y-58180000I137500J0D01*
G01*
X143647500Y-58180000D01*
G75*
G02*
X143785000Y-58317500I0J-137500D01*
G01*
X143785000Y-59642500D01*
G75*
G02*
X143647500Y-59780000I-137500J0D01*
G01*
G37*
%TD.AperFunction*%
%TO.P,U1,12*%
%TO.N,Net-(J3-Pad2)*%
%TA.AperFunction,SMDPad,CuDef*%
G36*
G01*
X144917500Y-59780000D02*
X144642500Y-59780000D01*
G75*
G02*
X144505000Y-59642500I0J137500D01*
G01*
X144505000Y-58317500D01*
G75*
G02*
X144642500Y-58180000I137500J0D01*
G01*
X144917500Y-58180000D01*
G75*
G02*
X145055000Y-58317500I0J-137500D01*
G01*
X145055000Y-59642500D01*
G75*
G02*
X144917500Y-59780000I-137500J0D01*
G01*
G37*
%TD.AperFunction*%
%TO.P,U1,11*%
%TO.N,Net-(J3-Pad1)*%
%TA.AperFunction,SMDPad,CuDef*%
G36*
G01*
X146187500Y-59780000D02*
X145912500Y-59780000D01*
G75*
G02*
X145775000Y-59642500I0J137500D01*
G01*
X145775000Y-58317500D01*
G75*
G02*
X145912500Y-58180000I137500J0D01*
G01*
X146187500Y-58180000D01*
G75*
G02*
X146325000Y-58317500I0J-137500D01*
G01*
X146325000Y-59642500D01*
G75*
G02*
X146187500Y-59780000I-137500J0D01*
G01*
G37*
%TD.AperFunction*%
%TO.P,U1,10*%
%TO.N,Net-(J1-Pad1)*%
%TA.AperFunction,SMDPad,CuDef*%
G36*
G01*
X147457500Y-59780000D02*
X147182500Y-59780000D01*
G75*
G02*
X147045000Y-59642500I0J137500D01*
G01*
X147045000Y-58317500D01*
G75*
G02*
X147182500Y-58180000I137500J0D01*
G01*
X147457500Y-58180000D01*
G75*
G02*
X147595000Y-58317500I0J-137500D01*
G01*
X147595000Y-59642500D01*
G75*
G02*
X147457500Y-59780000I-137500J0D01*
G01*
G37*
%TD.AperFunction*%
%TO.P,U1,9*%
%TO.N,Net-(J2-Pad1)*%
%TA.AperFunction,SMDPad,CuDef*%
G36*
G01*
X148727500Y-59780000D02*
X148452500Y-59780000D01*
G75*
G02*
X148315000Y-59642500I0J137500D01*
G01*
X148315000Y-58317500D01*
G75*
G02*
X148452500Y-58180000I137500J0D01*
G01*
X148727500Y-58180000D01*
G75*
G02*
X148865000Y-58317500I0J-137500D01*
G01*
X148865000Y-59642500D01*
G75*
G02*
X148727500Y-59780000I-137500J0D01*
G01*
G37*
%TD.AperFunction*%
%TO.P,U1,8*%
%TO.N,GND*%
%TA.AperFunction,SMDPad,CuDef*%
G36*
G01*
X148727500Y-66280000D02*
X148452500Y-66280000D01*
G75*
G02*
X148315000Y-66142500I0J137500D01*
G01*
X148315000Y-64817500D01*
G75*
G02*
X148452500Y-64680000I137500J0D01*
G01*
X148727500Y-64680000D01*
G75*
G02*
X148865000Y-64817500I0J-137500D01*
G01*
X148865000Y-66142500D01*
G75*
G02*
X148727500Y-66280000I-137500J0D01*
G01*
G37*
%TD.AperFunction*%
%TO.P,U1,7*%
%TO.N,Net-(U1-Pad7)*%
%TA.AperFunction,SMDPad,CuDef*%
G36*
G01*
X147457500Y-66280000D02*
X147182500Y-66280000D01*
G75*
G02*
X147045000Y-66142500I0J137500D01*
G01*
X147045000Y-64817500D01*
G75*
G02*
X147182500Y-64680000I137500J0D01*
G01*
X147457500Y-64680000D01*
G75*
G02*
X147595000Y-64817500I0J-137500D01*
G01*
X147595000Y-66142500D01*
G75*
G02*
X147457500Y-66280000I-137500J0D01*
G01*
G37*
%TD.AperFunction*%
%TO.P,U1,6*%
%TO.N,Net-(J3-Pad8)*%
%TA.AperFunction,SMDPad,CuDef*%
G36*
G01*
X146187500Y-66280000D02*
X145912500Y-66280000D01*
G75*
G02*
X145775000Y-66142500I0J137500D01*
G01*
X145775000Y-64817500D01*
G75*
G02*
X145912500Y-64680000I137500J0D01*
G01*
X146187500Y-64680000D01*
G75*
G02*
X146325000Y-64817500I0J-137500D01*
G01*
X146325000Y-66142500D01*
G75*
G02*
X146187500Y-66280000I-137500J0D01*
G01*
G37*
%TD.AperFunction*%
%TO.P,U1,5*%
%TO.N,Net-(J3-Pad7)*%
%TA.AperFunction,SMDPad,CuDef*%
G36*
G01*
X144917500Y-66280000D02*
X144642500Y-66280000D01*
G75*
G02*
X144505000Y-66142500I0J137500D01*
G01*
X144505000Y-64817500D01*
G75*
G02*
X144642500Y-64680000I137500J0D01*
G01*
X144917500Y-64680000D01*
G75*
G02*
X145055000Y-64817500I0J-137500D01*
G01*
X145055000Y-66142500D01*
G75*
G02*
X144917500Y-66280000I-137500J0D01*
G01*
G37*
%TD.AperFunction*%
%TO.P,U1,4*%
%TO.N,Net-(J3-Pad6)*%
%TA.AperFunction,SMDPad,CuDef*%
G36*
G01*
X143647500Y-66280000D02*
X143372500Y-66280000D01*
G75*
G02*
X143235000Y-66142500I0J137500D01*
G01*
X143235000Y-64817500D01*
G75*
G02*
X143372500Y-64680000I137500J0D01*
G01*
X143647500Y-64680000D01*
G75*
G02*
X143785000Y-64817500I0J-137500D01*
G01*
X143785000Y-66142500D01*
G75*
G02*
X143647500Y-66280000I-137500J0D01*
G01*
G37*
%TD.AperFunction*%
%TO.P,U1,3*%
%TO.N,Net-(J3-Pad5)*%
%TA.AperFunction,SMDPad,CuDef*%
G36*
G01*
X142377500Y-66280000D02*
X142102500Y-66280000D01*
G75*
G02*
X141965000Y-66142500I0J137500D01*
G01*
X141965000Y-64817500D01*
G75*
G02*
X142102500Y-64680000I137500J0D01*
G01*
X142377500Y-64680000D01*
G75*
G02*
X142515000Y-64817500I0J-137500D01*
G01*
X142515000Y-66142500D01*
G75*
G02*
X142377500Y-66280000I-137500J0D01*
G01*
G37*
%TD.AperFunction*%
%TO.P,U1,2*%
%TO.N,Net-(J1-Pad3)*%
%TA.AperFunction,SMDPad,CuDef*%
G36*
G01*
X141107500Y-66280000D02*
X140832500Y-66280000D01*
G75*
G02*
X140695000Y-66142500I0J137500D01*
G01*
X140695000Y-64817500D01*
G75*
G02*
X140832500Y-64680000I137500J0D01*
G01*
X141107500Y-64680000D01*
G75*
G02*
X141245000Y-64817500I0J-137500D01*
G01*
X141245000Y-66142500D01*
G75*
G02*
X141107500Y-66280000I-137500J0D01*
G01*
G37*
%TD.AperFunction*%
%TO.P,U1,1*%
%TO.N,Net-(J1-Pad2)*%
%TA.AperFunction,SMDPad,CuDef*%
G36*
G01*
X139837500Y-66280000D02*
X139562500Y-66280000D01*
G75*
G02*
X139425000Y-66142500I0J137500D01*
G01*
X139425000Y-64817500D01*
G75*
G02*
X139562500Y-64680000I137500J0D01*
G01*
X139837500Y-64680000D01*
G75*
G02*
X139975000Y-64817500I0J-137500D01*
G01*
X139975000Y-66142500D01*
G75*
G02*
X139837500Y-66280000I-137500J0D01*
G01*
G37*
%TD.AperFunction*%
%TD*%
D10*
%TO.P,J3,8*%
%TO.N,Net-(J3-Pad8)*%
X152400000Y-72390000D03*
%TO.P,J3,7*%
%TO.N,Net-(J3-Pad7)*%
X149860000Y-72390000D03*
%TO.P,J3,6*%
%TO.N,Net-(J3-Pad6)*%
X147320000Y-72390000D03*
%TO.P,J3,5*%
%TO.N,Net-(J3-Pad5)*%
X144780000Y-72390000D03*
%TO.P,J3,4*%
%TO.N,Net-(J3-Pad4)*%
X142240000Y-72390000D03*
%TO.P,J3,3*%
%TO.N,Net-(J3-Pad3)*%
X139700000Y-72390000D03*
%TO.P,J3,2*%
%TO.N,Net-(J3-Pad2)*%
X137160000Y-72390000D03*
D11*
%TO.P,J3,1*%
%TO.N,Net-(J3-Pad1)*%
X134620000Y-72390000D03*
%TD*%
D10*
%TO.P,J2,6*%
%TO.N,VCC*%
X156210000Y-69850000D03*
%TO.P,J2,5*%
%TO.N,GND*%
X156210000Y-67310000D03*
%TO.P,J2,4*%
%TO.N,Net-(J1-Pad4)*%
X156210000Y-64770000D03*
%TO.P,J2,3*%
%TO.N,Net-(J1-Pad3)*%
X156210000Y-62230000D03*
%TO.P,J2,2*%
%TO.N,Net-(J1-Pad2)*%
X156210000Y-59690000D03*
D11*
%TO.P,J2,1*%
%TO.N,Net-(J2-Pad1)*%
X156210000Y-57150000D03*
%TD*%
D10*
%TO.P,J1,6*%
%TO.N,VCC*%
X130810000Y-69850000D03*
%TO.P,J1,5*%
%TO.N,GND*%
X130810000Y-67310000D03*
%TO.P,J1,4*%
%TO.N,Net-(J1-Pad4)*%
X130810000Y-64770000D03*
%TO.P,J1,3*%
%TO.N,Net-(J1-Pad3)*%
X130810000Y-62230000D03*
%TO.P,J1,2*%
%TO.N,Net-(J1-Pad2)*%
X130810000Y-59690000D03*
D11*
%TO.P,J1,1*%
%TO.N,Net-(J1-Pad1)*%
X130810000Y-57150000D03*
%TD*%
%TO.P,C1,2*%
%TO.N,GND*%
%TA.AperFunction,SMDPad,CuDef*%
G36*
G01*
X151780001Y-66410000D02*
X150479999Y-66410000D01*
G75*
G02*
X150230000Y-66160001I0J249999D01*
G01*
X150230000Y-65509999D01*
G75*
G02*
X150479999Y-65260000I249999J0D01*
G01*
X151780001Y-65260000D01*
G75*
G02*
X152030000Y-65509999I0J-249999D01*
G01*
X152030000Y-66160001D01*
G75*
G02*
X151780001Y-66410000I-249999J0D01*
G01*
G37*
%TD.AperFunction*%
%TO.P,C1,1*%
%TO.N,VCC*%
%TA.AperFunction,SMDPad,CuDef*%
G36*
G01*
X151780001Y-69360000D02*
X150479999Y-69360000D01*
G75*
G02*
X150230000Y-69110001I0J249999D01*
G01*
X150230000Y-68459999D01*
G75*
G02*
X150479999Y-68210000I249999J0D01*
G01*
X151780001Y-68210000D01*
G75*
G02*
X152030000Y-68459999I0J-249999D01*
G01*
X152030000Y-69110001D01*
G75*
G02*
X151780001Y-69360000I-249999J0D01*
G01*
G37*
%TD.AperFunction*%
%TD*%
D12*
%TO.N,GND*%
X152400000Y-66040000D03*
X148590000Y-67310000D03*
%TO.N,VCC*%
X139700000Y-60960000D03*
X144780000Y-63500000D03*
X133350000Y-60960000D03*
%TO.N,Net-(J1-Pad4)*%
X142240000Y-60960000D03*
X149860000Y-60960000D03*
%TO.N,Net-(J1-Pad3)*%
X140970000Y-67310000D03*
%TO.N,Net-(J1-Pad2)*%
X140970000Y-63500000D03*
%TO.N,Net-(J1-Pad1)*%
X146050000Y-57150000D03*
%TD*%
D13*
%TO.N,GND*%
X148590000Y-65480000D02*
X148590000Y-67310000D01*
X152195000Y-65835000D02*
X152400000Y-66040000D01*
X151130000Y-65835000D02*
X152195000Y-65835000D01*
%TO.N,VCC*%
X139700000Y-58980000D02*
X139700000Y-59690000D01*
X139700000Y-58980000D02*
X139700000Y-60960000D01*
%TO.N,Net-(J1-Pad4)*%
X140970000Y-59780000D02*
X142150000Y-60960000D01*
X140970000Y-58980000D02*
X140970000Y-59780000D01*
X142150000Y-60960000D02*
X142240000Y-60960000D01*
X149860000Y-60960000D02*
X142240000Y-60960000D01*
%TO.N,Net-(J1-Pad3)*%
X140970000Y-65480000D02*
X140970000Y-67310000D01*
X154940000Y-62230000D02*
X156210000Y-62230000D01*
X143420000Y-62230000D02*
X156210000Y-62230000D01*
X140970000Y-64680000D02*
X143420000Y-62230000D01*
X140970000Y-65480000D02*
X140970000Y-64680000D01*
%TO.N,Net-(J1-Pad2)*%
X139700000Y-65480000D02*
X139700000Y-64680000D01*
X152400000Y-59690000D02*
X156210000Y-59690000D01*
X142690010Y-61779990D02*
X150310010Y-61779990D01*
X140970000Y-63500000D02*
X142690010Y-61779990D01*
X150310010Y-61779990D02*
X152400000Y-59690000D01*
X139700000Y-64770000D02*
X140970000Y-63500000D01*
X139700000Y-65480000D02*
X139700000Y-64770000D01*
%TO.N,Net-(J1-Pad1)*%
X147320000Y-58180000D02*
X147320000Y-58980000D01*
X147320000Y-58420000D02*
X147320000Y-58980000D01*
X147320000Y-58420000D02*
X146050000Y-57150000D01*
%TO.N,Net-(J2-Pad1)*%
X148590000Y-58980000D02*
X148590000Y-58420000D01*
X148590000Y-58420000D02*
X149860000Y-57150000D01*
X149860000Y-57150000D02*
X156210000Y-57150000D01*
%TO.N,Net-(J3-Pad8)*%
X152400000Y-72390000D02*
X152400000Y-71120000D01*
X151949990Y-70669990D02*
X149409990Y-70669990D01*
X152400000Y-71120000D02*
X151949990Y-70669990D01*
X149409990Y-70669990D02*
X146050000Y-67310000D01*
X146050000Y-67310000D02*
X146050000Y-65480000D01*
%TO.N,Net-(J3-Pad7)*%
X144780000Y-65480000D02*
X144780000Y-67310000D01*
X149860000Y-71120000D02*
X149860000Y-72390000D01*
X149860000Y-71120000D02*
X148590000Y-71120000D01*
X148590000Y-71120000D02*
X144780000Y-67310000D01*
%TO.N,Net-(J3-Pad6)*%
X143510000Y-65480000D02*
X143510000Y-67310000D01*
X143510000Y-67310000D02*
X147320000Y-71120000D01*
X147320000Y-72390000D02*
X147320000Y-71120000D01*
%TO.N,Net-(J3-Pad5)*%
X142240000Y-65480000D02*
X142240000Y-68580000D01*
X142240000Y-68580000D02*
X144780000Y-71120000D01*
X144780000Y-72390000D02*
X144780000Y-71120000D01*
%TO.N,Net-(J3-Pad4)*%
X138430000Y-58795912D02*
X138430000Y-67310000D01*
X142240000Y-58180000D02*
X141914990Y-57854990D01*
X138430000Y-67310000D02*
X142240000Y-71120000D01*
X141914990Y-57854990D02*
X139370922Y-57854990D01*
X142240000Y-58980000D02*
X142240000Y-58180000D01*
X139370922Y-57854990D02*
X138430000Y-58795912D01*
X142240000Y-72390000D02*
X142240000Y-71120000D01*
%TO.N,Net-(J3-Pad3)*%
X143510000Y-58180000D02*
X142480000Y-57150000D01*
X143510000Y-58980000D02*
X143510000Y-58180000D01*
X137610010Y-67760010D02*
X139700000Y-69850000D01*
X139439502Y-57150000D02*
X137610010Y-58979492D01*
X142480000Y-57150000D02*
X139439502Y-57150000D01*
X137610010Y-58979492D02*
X137610010Y-67760010D01*
X139700000Y-72390000D02*
X139700000Y-69850000D01*
X139700000Y-71589002D02*
X139700000Y-69850000D01*
%TO.N,Net-(J3-Pad2)*%
X143299991Y-56699991D02*
X138880009Y-56699991D01*
X144780000Y-58180000D02*
X143299991Y-56699991D01*
X144780000Y-58980000D02*
X144780000Y-58180000D01*
X138880009Y-56699991D02*
X137160000Y-58420000D01*
X137160000Y-72390000D02*
X137160000Y-58420000D01*
%TO.N,Net-(J3-Pad1)*%
X146050000Y-58980000D02*
X146050000Y-58180000D01*
X146050000Y-58180000D02*
X144265000Y-56395000D01*
X144265000Y-56395000D02*
X144119982Y-56249982D01*
X135890000Y-71120000D02*
X134620000Y-72390000D01*
X144265000Y-56395000D02*
X144119981Y-56249981D01*
X144119981Y-56249981D02*
X138060019Y-56249981D01*
X138060019Y-56249981D02*
X135890000Y-58420000D01*
X135890000Y-71120000D02*
X135890000Y-58420000D01*
%TD*%
D14*
%TO.N,VCC*%
X158090000Y-74270000D02*
X128930000Y-74270000D01*
X128930000Y-71540000D01*
X133131928Y-71540000D01*
X133131928Y-73240000D01*
X133144188Y-73364482D01*
X133180498Y-73484180D01*
X133239463Y-73594494D01*
X133318815Y-73691185D01*
X133415506Y-73770537D01*
X133525820Y-73829502D01*
X133645518Y-73865812D01*
X133770000Y-73878072D01*
X135470000Y-73878072D01*
X135594482Y-73865812D01*
X135714180Y-73829502D01*
X135824494Y-73770537D01*
X135921185Y-73691185D01*
X136000537Y-73594494D01*
X136059502Y-73484180D01*
X136081513Y-73411620D01*
X136213368Y-73543475D01*
X136456589Y-73705990D01*
X136726842Y-73817932D01*
X137013740Y-73875000D01*
X137306260Y-73875000D01*
X137593158Y-73817932D01*
X137863411Y-73705990D01*
X138106632Y-73543475D01*
X138313475Y-73336632D01*
X138430000Y-73162240D01*
X138546525Y-73336632D01*
X138753368Y-73543475D01*
X138996589Y-73705990D01*
X139266842Y-73817932D01*
X139553740Y-73875000D01*
X139846260Y-73875000D01*
X140133158Y-73817932D01*
X140403411Y-73705990D01*
X140646632Y-73543475D01*
X140853475Y-73336632D01*
X140970000Y-73162240D01*
X141086525Y-73336632D01*
X141293368Y-73543475D01*
X141536589Y-73705990D01*
X141806842Y-73817932D01*
X142093740Y-73875000D01*
X142386260Y-73875000D01*
X142673158Y-73817932D01*
X142943411Y-73705990D01*
X143186632Y-73543475D01*
X143393475Y-73336632D01*
X143510000Y-73162240D01*
X143626525Y-73336632D01*
X143833368Y-73543475D01*
X144076589Y-73705990D01*
X144346842Y-73817932D01*
X144633740Y-73875000D01*
X144926260Y-73875000D01*
X145213158Y-73817932D01*
X145483411Y-73705990D01*
X145726632Y-73543475D01*
X145933475Y-73336632D01*
X146050000Y-73162240D01*
X146166525Y-73336632D01*
X146373368Y-73543475D01*
X146616589Y-73705990D01*
X146886842Y-73817932D01*
X147173740Y-73875000D01*
X147466260Y-73875000D01*
X147753158Y-73817932D01*
X148023411Y-73705990D01*
X148266632Y-73543475D01*
X148473475Y-73336632D01*
X148590000Y-73162240D01*
X148706525Y-73336632D01*
X148913368Y-73543475D01*
X149156589Y-73705990D01*
X149426842Y-73817932D01*
X149713740Y-73875000D01*
X150006260Y-73875000D01*
X150293158Y-73817932D01*
X150563411Y-73705990D01*
X150806632Y-73543475D01*
X151013475Y-73336632D01*
X151130000Y-73162240D01*
X151246525Y-73336632D01*
X151453368Y-73543475D01*
X151696589Y-73705990D01*
X151966842Y-73817932D01*
X152253740Y-73875000D01*
X152546260Y-73875000D01*
X152833158Y-73817932D01*
X153103411Y-73705990D01*
X153346632Y-73543475D01*
X153553475Y-73336632D01*
X153715990Y-73093411D01*
X153827932Y-72823158D01*
X153885000Y-72536260D01*
X153885000Y-72243740D01*
X153827932Y-71956842D01*
X153715990Y-71686589D01*
X153553475Y-71443368D01*
X153346632Y-71236525D01*
X153163073Y-71113875D01*
X153160000Y-71082676D01*
X153160000Y-71082667D01*
X153149003Y-70971014D01*
X153105546Y-70827753D01*
X153034974Y-70695724D01*
X152940001Y-70579999D01*
X152910997Y-70556196D01*
X152561691Y-70206890D01*
X154768524Y-70206890D01*
X154813175Y-70354099D01*
X154938359Y-70616920D01*
X155112412Y-70850269D01*
X155328645Y-71045178D01*
X155578748Y-71194157D01*
X155853109Y-71291481D01*
X156083000Y-71170814D01*
X156083000Y-69977000D01*
X156337000Y-69977000D01*
X156337000Y-71170814D01*
X156566891Y-71291481D01*
X156841252Y-71194157D01*
X157091355Y-71045178D01*
X157307588Y-70850269D01*
X157481641Y-70616920D01*
X157606825Y-70354099D01*
X157651476Y-70206890D01*
X157530155Y-69977000D01*
X156337000Y-69977000D01*
X156083000Y-69977000D01*
X154889845Y-69977000D01*
X154768524Y-70206890D01*
X152561691Y-70206890D01*
X152513794Y-70158993D01*
X152489991Y-70129989D01*
X152374266Y-70035016D01*
X152242237Y-69964444D01*
X152233580Y-69961818D01*
X152274180Y-69949502D01*
X152384494Y-69890537D01*
X152481185Y-69811185D01*
X152560537Y-69714494D01*
X152619502Y-69604180D01*
X152655812Y-69484482D01*
X152668072Y-69360000D01*
X152665000Y-69070750D01*
X152506250Y-68912000D01*
X151257000Y-68912000D01*
X151257000Y-68932000D01*
X151003000Y-68932000D01*
X151003000Y-68912000D01*
X149753750Y-68912000D01*
X149595000Y-69070750D01*
X149591928Y-69360000D01*
X149604188Y-69484482D01*
X149640498Y-69604180D01*
X149699463Y-69714494D01*
X149778815Y-69811185D01*
X149875506Y-69890537D01*
X149911899Y-69909990D01*
X149724793Y-69909990D01*
X146810000Y-66995199D01*
X146810000Y-66818572D01*
X146885701Y-66859035D01*
X147031193Y-66903170D01*
X147182500Y-66918072D01*
X147457500Y-66918072D01*
X147608807Y-66903170D01*
X147642468Y-66892959D01*
X147594774Y-67008102D01*
X147555000Y-67208061D01*
X147555000Y-67411939D01*
X147594774Y-67611898D01*
X147672795Y-67800256D01*
X147786063Y-67969774D01*
X147930226Y-68113937D01*
X148099744Y-68227205D01*
X148288102Y-68305226D01*
X148488061Y-68345000D01*
X148691939Y-68345000D01*
X148891898Y-68305226D01*
X149080256Y-68227205D01*
X149106005Y-68210000D01*
X149591928Y-68210000D01*
X149595000Y-68499250D01*
X149753750Y-68658000D01*
X151003000Y-68658000D01*
X151003000Y-67733750D01*
X151257000Y-67733750D01*
X151257000Y-68658000D01*
X152506250Y-68658000D01*
X152665000Y-68499250D01*
X152668072Y-68210000D01*
X152655812Y-68085518D01*
X152619502Y-67965820D01*
X152560537Y-67855506D01*
X152481185Y-67758815D01*
X152384494Y-67679463D01*
X152274180Y-67620498D01*
X152154482Y-67584188D01*
X152030000Y-67571928D01*
X151415750Y-67575000D01*
X151257000Y-67733750D01*
X151003000Y-67733750D01*
X150844250Y-67575000D01*
X150230000Y-67571928D01*
X150105518Y-67584188D01*
X149985820Y-67620498D01*
X149875506Y-67679463D01*
X149778815Y-67758815D01*
X149699463Y-67855506D01*
X149640498Y-67965820D01*
X149604188Y-68085518D01*
X149591928Y-68210000D01*
X149106005Y-68210000D01*
X149249774Y-68113937D01*
X149393937Y-67969774D01*
X149507205Y-67800256D01*
X149585226Y-67611898D01*
X149625000Y-67411939D01*
X149625000Y-67208061D01*
X149585226Y-67008102D01*
X149507205Y-66819744D01*
X149393937Y-66650226D01*
X149350000Y-66606289D01*
X149350000Y-66600637D01*
X149372365Y-66573385D01*
X149444035Y-66439299D01*
X149488170Y-66293807D01*
X149503072Y-66142500D01*
X149503072Y-65509999D01*
X149591928Y-65509999D01*
X149591928Y-66160001D01*
X149608992Y-66333255D01*
X149659528Y-66499851D01*
X149741595Y-66653387D01*
X149852038Y-66787962D01*
X149986613Y-66898405D01*
X150140149Y-66980472D01*
X150306745Y-67031008D01*
X150479999Y-67048072D01*
X151780001Y-67048072D01*
X151953255Y-67031008D01*
X152030991Y-67007427D01*
X152098102Y-67035226D01*
X152298061Y-67075000D01*
X152501939Y-67075000D01*
X152701898Y-67035226D01*
X152890256Y-66957205D01*
X153059774Y-66843937D01*
X153203937Y-66699774D01*
X153317205Y-66530256D01*
X153395226Y-66341898D01*
X153435000Y-66141939D01*
X153435000Y-65938061D01*
X153395226Y-65738102D01*
X153317205Y-65549744D01*
X153203937Y-65380226D01*
X153059774Y-65236063D01*
X152890256Y-65122795D01*
X152701898Y-65044774D01*
X152510227Y-65006649D01*
X152407962Y-64882038D01*
X152273387Y-64771595D01*
X152119851Y-64689528D01*
X151953255Y-64638992D01*
X151780001Y-64621928D01*
X150479999Y-64621928D01*
X150306745Y-64638992D01*
X150140149Y-64689528D01*
X149986613Y-64771595D01*
X149852038Y-64882038D01*
X149741595Y-65016613D01*
X149659528Y-65170149D01*
X149608992Y-65336745D01*
X149591928Y-65509999D01*
X149503072Y-65509999D01*
X149503072Y-64817500D01*
X149488170Y-64666193D01*
X149444035Y-64520701D01*
X149372365Y-64386615D01*
X149275912Y-64269088D01*
X149158385Y-64172635D01*
X149024299Y-64100965D01*
X148878807Y-64056830D01*
X148727500Y-64041928D01*
X148452500Y-64041928D01*
X148301193Y-64056830D01*
X148155701Y-64100965D01*
X148021615Y-64172635D01*
X147955000Y-64227305D01*
X147888385Y-64172635D01*
X147754299Y-64100965D01*
X147608807Y-64056830D01*
X147457500Y-64041928D01*
X147182500Y-64041928D01*
X147031193Y-64056830D01*
X146885701Y-64100965D01*
X146751615Y-64172635D01*
X146685000Y-64227305D01*
X146618385Y-64172635D01*
X146484299Y-64100965D01*
X146338807Y-64056830D01*
X146187500Y-64041928D01*
X145912500Y-64041928D01*
X145761193Y-64056830D01*
X145615701Y-64100965D01*
X145481615Y-64172635D01*
X145415000Y-64227305D01*
X145348385Y-64172635D01*
X145214299Y-64100965D01*
X145068807Y-64056830D01*
X144917500Y-64041928D01*
X144642500Y-64041928D01*
X144491193Y-64056830D01*
X144345701Y-64100965D01*
X144211615Y-64172635D01*
X144145000Y-64227305D01*
X144078385Y-64172635D01*
X143944299Y-64100965D01*
X143798807Y-64056830D01*
X143647500Y-64041928D01*
X143372500Y-64041928D01*
X143221193Y-64056830D01*
X143075701Y-64100965D01*
X142941615Y-64172635D01*
X142875000Y-64227305D01*
X142808385Y-64172635D01*
X142674299Y-64100965D01*
X142635581Y-64089220D01*
X143734802Y-62990000D01*
X154931822Y-62990000D01*
X155056525Y-63176632D01*
X155263368Y-63383475D01*
X155437760Y-63500000D01*
X155263368Y-63616525D01*
X155056525Y-63823368D01*
X154894010Y-64066589D01*
X154782068Y-64336842D01*
X154725000Y-64623740D01*
X154725000Y-64916260D01*
X154782068Y-65203158D01*
X154894010Y-65473411D01*
X155056525Y-65716632D01*
X155263368Y-65923475D01*
X155437760Y-66040000D01*
X155263368Y-66156525D01*
X155056525Y-66363368D01*
X154894010Y-66606589D01*
X154782068Y-66876842D01*
X154725000Y-67163740D01*
X154725000Y-67456260D01*
X154782068Y-67743158D01*
X154894010Y-68013411D01*
X155056525Y-68256632D01*
X155263368Y-68463475D01*
X155445534Y-68585195D01*
X155328645Y-68654822D01*
X155112412Y-68849731D01*
X154938359Y-69083080D01*
X154813175Y-69345901D01*
X154768524Y-69493110D01*
X154889845Y-69723000D01*
X156083000Y-69723000D01*
X156083000Y-69703000D01*
X156337000Y-69703000D01*
X156337000Y-69723000D01*
X157530155Y-69723000D01*
X157651476Y-69493110D01*
X157606825Y-69345901D01*
X157481641Y-69083080D01*
X157307588Y-68849731D01*
X157091355Y-68654822D01*
X156974466Y-68585195D01*
X157156632Y-68463475D01*
X157363475Y-68256632D01*
X157525990Y-68013411D01*
X157637932Y-67743158D01*
X157695000Y-67456260D01*
X157695000Y-67163740D01*
X157637932Y-66876842D01*
X157525990Y-66606589D01*
X157363475Y-66363368D01*
X157156632Y-66156525D01*
X156982240Y-66040000D01*
X157156632Y-65923475D01*
X157363475Y-65716632D01*
X157525990Y-65473411D01*
X157637932Y-65203158D01*
X157695000Y-64916260D01*
X157695000Y-64623740D01*
X157637932Y-64336842D01*
X157525990Y-64066589D01*
X157363475Y-63823368D01*
X157156632Y-63616525D01*
X156982240Y-63500000D01*
X157156632Y-63383475D01*
X157363475Y-63176632D01*
X157525990Y-62933411D01*
X157637932Y-62663158D01*
X157695000Y-62376260D01*
X157695000Y-62083740D01*
X157637932Y-61796842D01*
X157525990Y-61526589D01*
X157363475Y-61283368D01*
X157156632Y-61076525D01*
X156982240Y-60960000D01*
X157156632Y-60843475D01*
X157363475Y-60636632D01*
X157525990Y-60393411D01*
X157637932Y-60123158D01*
X157695000Y-59836260D01*
X157695000Y-59543740D01*
X157637932Y-59256842D01*
X157525990Y-58986589D01*
X157363475Y-58743368D01*
X157231620Y-58611513D01*
X157304180Y-58589502D01*
X157414494Y-58530537D01*
X157511185Y-58451185D01*
X157590537Y-58354494D01*
X157649502Y-58244180D01*
X157685812Y-58124482D01*
X157698072Y-58000000D01*
X157698072Y-56300000D01*
X157685812Y-56175518D01*
X157649502Y-56055820D01*
X157590537Y-55945506D01*
X157511185Y-55848815D01*
X157414494Y-55769463D01*
X157304180Y-55710498D01*
X157184482Y-55674188D01*
X157060000Y-55661928D01*
X155360000Y-55661928D01*
X155235518Y-55674188D01*
X155115820Y-55710498D01*
X155005506Y-55769463D01*
X154908815Y-55848815D01*
X154829463Y-55945506D01*
X154770498Y-56055820D01*
X154734188Y-56175518D01*
X154721928Y-56300000D01*
X154721928Y-56390000D01*
X149897322Y-56390000D01*
X149859999Y-56386324D01*
X149822676Y-56390000D01*
X149822667Y-56390000D01*
X149711014Y-56400997D01*
X149567753Y-56444454D01*
X149435724Y-56515026D01*
X149319999Y-56609999D01*
X149296201Y-56638997D01*
X148386800Y-57548399D01*
X148301193Y-57556830D01*
X148155701Y-57600965D01*
X148021615Y-57672635D01*
X147955000Y-57727305D01*
X147888385Y-57672635D01*
X147885534Y-57671111D01*
X147860001Y-57639999D01*
X147744275Y-57545026D01*
X147612246Y-57474454D01*
X147468985Y-57430997D01*
X147398895Y-57424094D01*
X147085000Y-57110199D01*
X147085000Y-57048061D01*
X147045226Y-56848102D01*
X146967205Y-56659744D01*
X146853937Y-56490226D01*
X146709774Y-56346063D01*
X146540256Y-56232795D01*
X146351898Y-56154774D01*
X146151939Y-56115000D01*
X145948061Y-56115000D01*
X145748102Y-56154774D01*
X145559744Y-56232795D01*
X145390226Y-56346063D01*
X145340545Y-56395744D01*
X144828803Y-55884002D01*
X144828799Y-55883997D01*
X144683784Y-55738982D01*
X144659982Y-55709980D01*
X144544257Y-55615007D01*
X144412228Y-55544435D01*
X144268967Y-55500978D01*
X144157314Y-55489981D01*
X144157303Y-55489981D01*
X144119981Y-55486305D01*
X144082659Y-55489981D01*
X138097341Y-55489981D01*
X138060018Y-55486305D01*
X138022695Y-55489981D01*
X138022686Y-55489981D01*
X137911033Y-55500978D01*
X137767772Y-55544435D01*
X137635743Y-55615007D01*
X137520018Y-55709980D01*
X137496220Y-55738978D01*
X135378998Y-57856201D01*
X135350000Y-57879999D01*
X135326202Y-57908997D01*
X135326201Y-57908998D01*
X135255026Y-57995724D01*
X135184454Y-58127754D01*
X135161023Y-58205000D01*
X135140998Y-58271014D01*
X135131087Y-58371637D01*
X135126324Y-58420000D01*
X135130001Y-58457332D01*
X135130000Y-70805198D01*
X135033270Y-70901928D01*
X133770000Y-70901928D01*
X133645518Y-70914188D01*
X133525820Y-70950498D01*
X133415506Y-71009463D01*
X133318815Y-71088815D01*
X133239463Y-71185506D01*
X133180498Y-71295820D01*
X133144188Y-71415518D01*
X133131928Y-71540000D01*
X128930000Y-71540000D01*
X128930000Y-70206890D01*
X129368524Y-70206890D01*
X129413175Y-70354099D01*
X129538359Y-70616920D01*
X129712412Y-70850269D01*
X129928645Y-71045178D01*
X130178748Y-71194157D01*
X130453109Y-71291481D01*
X130683000Y-71170814D01*
X130683000Y-69977000D01*
X130937000Y-69977000D01*
X130937000Y-71170814D01*
X131166891Y-71291481D01*
X131441252Y-71194157D01*
X131691355Y-71045178D01*
X131907588Y-70850269D01*
X132081641Y-70616920D01*
X132206825Y-70354099D01*
X132251476Y-70206890D01*
X132130155Y-69977000D01*
X130937000Y-69977000D01*
X130683000Y-69977000D01*
X129489845Y-69977000D01*
X129368524Y-70206890D01*
X128930000Y-70206890D01*
X128930000Y-56300000D01*
X129321928Y-56300000D01*
X129321928Y-58000000D01*
X129334188Y-58124482D01*
X129370498Y-58244180D01*
X129429463Y-58354494D01*
X129508815Y-58451185D01*
X129605506Y-58530537D01*
X129715820Y-58589502D01*
X129788380Y-58611513D01*
X129656525Y-58743368D01*
X129494010Y-58986589D01*
X129382068Y-59256842D01*
X129325000Y-59543740D01*
X129325000Y-59836260D01*
X129382068Y-60123158D01*
X129494010Y-60393411D01*
X129656525Y-60636632D01*
X129863368Y-60843475D01*
X130037760Y-60960000D01*
X129863368Y-61076525D01*
X129656525Y-61283368D01*
X129494010Y-61526589D01*
X129382068Y-61796842D01*
X129325000Y-62083740D01*
X129325000Y-62376260D01*
X129382068Y-62663158D01*
X129494010Y-62933411D01*
X129656525Y-63176632D01*
X129863368Y-63383475D01*
X130037760Y-63500000D01*
X129863368Y-63616525D01*
X129656525Y-63823368D01*
X129494010Y-64066589D01*
X129382068Y-64336842D01*
X129325000Y-64623740D01*
X129325000Y-64916260D01*
X129382068Y-65203158D01*
X129494010Y-65473411D01*
X129656525Y-65716632D01*
X129863368Y-65923475D01*
X130037760Y-66040000D01*
X129863368Y-66156525D01*
X129656525Y-66363368D01*
X129494010Y-66606589D01*
X129382068Y-66876842D01*
X129325000Y-67163740D01*
X129325000Y-67456260D01*
X129382068Y-67743158D01*
X129494010Y-68013411D01*
X129656525Y-68256632D01*
X129863368Y-68463475D01*
X130045534Y-68585195D01*
X129928645Y-68654822D01*
X129712412Y-68849731D01*
X129538359Y-69083080D01*
X129413175Y-69345901D01*
X129368524Y-69493110D01*
X129489845Y-69723000D01*
X130683000Y-69723000D01*
X130683000Y-69703000D01*
X130937000Y-69703000D01*
X130937000Y-69723000D01*
X132130155Y-69723000D01*
X132251476Y-69493110D01*
X132206825Y-69345901D01*
X132081641Y-69083080D01*
X131907588Y-68849731D01*
X131691355Y-68654822D01*
X131574466Y-68585195D01*
X131756632Y-68463475D01*
X131963475Y-68256632D01*
X132125990Y-68013411D01*
X132237932Y-67743158D01*
X132295000Y-67456260D01*
X132295000Y-67163740D01*
X132237932Y-66876842D01*
X132125990Y-66606589D01*
X131963475Y-66363368D01*
X131756632Y-66156525D01*
X131582240Y-66040000D01*
X131756632Y-65923475D01*
X131963475Y-65716632D01*
X132125990Y-65473411D01*
X132237932Y-65203158D01*
X132295000Y-64916260D01*
X132295000Y-64623740D01*
X132237932Y-64336842D01*
X132125990Y-64066589D01*
X131963475Y-63823368D01*
X131756632Y-63616525D01*
X131582240Y-63500000D01*
X131756632Y-63383475D01*
X131963475Y-63176632D01*
X132125990Y-62933411D01*
X132237932Y-62663158D01*
X132295000Y-62376260D01*
X132295000Y-62083740D01*
X132237932Y-61796842D01*
X132125990Y-61526589D01*
X131963475Y-61283368D01*
X131756632Y-61076525D01*
X131582240Y-60960000D01*
X131756632Y-60843475D01*
X131963475Y-60636632D01*
X132125990Y-60393411D01*
X132237932Y-60123158D01*
X132295000Y-59836260D01*
X132295000Y-59543740D01*
X132237932Y-59256842D01*
X132125990Y-58986589D01*
X131963475Y-58743368D01*
X131831620Y-58611513D01*
X131904180Y-58589502D01*
X132014494Y-58530537D01*
X132111185Y-58451185D01*
X132190537Y-58354494D01*
X132249502Y-58244180D01*
X132285812Y-58124482D01*
X132298072Y-58000000D01*
X132298072Y-56300000D01*
X132285812Y-56175518D01*
X132249502Y-56055820D01*
X132190537Y-55945506D01*
X132111185Y-55848815D01*
X132014494Y-55769463D01*
X131904180Y-55710498D01*
X131784482Y-55674188D01*
X131660000Y-55661928D01*
X129960000Y-55661928D01*
X129835518Y-55674188D01*
X129715820Y-55710498D01*
X129605506Y-55769463D01*
X129508815Y-55848815D01*
X129429463Y-55945506D01*
X129370498Y-56055820D01*
X129334188Y-56175518D01*
X129321928Y-56300000D01*
X128930000Y-56300000D01*
X128930000Y-55270000D01*
X158090001Y-55270000D01*
X158090000Y-74270000D01*
%TA.AperFunction,Conductor*%
D15*
G36*
X158090000Y-74270000D02*
G01*
X128930000Y-74270000D01*
X128930000Y-71540000D01*
X133131928Y-71540000D01*
X133131928Y-73240000D01*
X133144188Y-73364482D01*
X133180498Y-73484180D01*
X133239463Y-73594494D01*
X133318815Y-73691185D01*
X133415506Y-73770537D01*
X133525820Y-73829502D01*
X133645518Y-73865812D01*
X133770000Y-73878072D01*
X135470000Y-73878072D01*
X135594482Y-73865812D01*
X135714180Y-73829502D01*
X135824494Y-73770537D01*
X135921185Y-73691185D01*
X136000537Y-73594494D01*
X136059502Y-73484180D01*
X136081513Y-73411620D01*
X136213368Y-73543475D01*
X136456589Y-73705990D01*
X136726842Y-73817932D01*
X137013740Y-73875000D01*
X137306260Y-73875000D01*
X137593158Y-73817932D01*
X137863411Y-73705990D01*
X138106632Y-73543475D01*
X138313475Y-73336632D01*
X138430000Y-73162240D01*
X138546525Y-73336632D01*
X138753368Y-73543475D01*
X138996589Y-73705990D01*
X139266842Y-73817932D01*
X139553740Y-73875000D01*
X139846260Y-73875000D01*
X140133158Y-73817932D01*
X140403411Y-73705990D01*
X140646632Y-73543475D01*
X140853475Y-73336632D01*
X140970000Y-73162240D01*
X141086525Y-73336632D01*
X141293368Y-73543475D01*
X141536589Y-73705990D01*
X141806842Y-73817932D01*
X142093740Y-73875000D01*
X142386260Y-73875000D01*
X142673158Y-73817932D01*
X142943411Y-73705990D01*
X143186632Y-73543475D01*
X143393475Y-73336632D01*
X143510000Y-73162240D01*
X143626525Y-73336632D01*
X143833368Y-73543475D01*
X144076589Y-73705990D01*
X144346842Y-73817932D01*
X144633740Y-73875000D01*
X144926260Y-73875000D01*
X145213158Y-73817932D01*
X145483411Y-73705990D01*
X145726632Y-73543475D01*
X145933475Y-73336632D01*
X146050000Y-73162240D01*
X146166525Y-73336632D01*
X146373368Y-73543475D01*
X146616589Y-73705990D01*
X146886842Y-73817932D01*
X147173740Y-73875000D01*
X147466260Y-73875000D01*
X147753158Y-73817932D01*
X148023411Y-73705990D01*
X148266632Y-73543475D01*
X148473475Y-73336632D01*
X148590000Y-73162240D01*
X148706525Y-73336632D01*
X148913368Y-73543475D01*
X149156589Y-73705990D01*
X149426842Y-73817932D01*
X149713740Y-73875000D01*
X150006260Y-73875000D01*
X150293158Y-73817932D01*
X150563411Y-73705990D01*
X150806632Y-73543475D01*
X151013475Y-73336632D01*
X151130000Y-73162240D01*
X151246525Y-73336632D01*
X151453368Y-73543475D01*
X151696589Y-73705990D01*
X151966842Y-73817932D01*
X152253740Y-73875000D01*
X152546260Y-73875000D01*
X152833158Y-73817932D01*
X153103411Y-73705990D01*
X153346632Y-73543475D01*
X153553475Y-73336632D01*
X153715990Y-73093411D01*
X153827932Y-72823158D01*
X153885000Y-72536260D01*
X153885000Y-72243740D01*
X153827932Y-71956842D01*
X153715990Y-71686589D01*
X153553475Y-71443368D01*
X153346632Y-71236525D01*
X153163073Y-71113875D01*
X153160000Y-71082676D01*
X153160000Y-71082667D01*
X153149003Y-70971014D01*
X153105546Y-70827753D01*
X153034974Y-70695724D01*
X152940001Y-70579999D01*
X152910997Y-70556196D01*
X152561691Y-70206890D01*
X154768524Y-70206890D01*
X154813175Y-70354099D01*
X154938359Y-70616920D01*
X155112412Y-70850269D01*
X155328645Y-71045178D01*
X155578748Y-71194157D01*
X155853109Y-71291481D01*
X156083000Y-71170814D01*
X156083000Y-69977000D01*
X156337000Y-69977000D01*
X156337000Y-71170814D01*
X156566891Y-71291481D01*
X156841252Y-71194157D01*
X157091355Y-71045178D01*
X157307588Y-70850269D01*
X157481641Y-70616920D01*
X157606825Y-70354099D01*
X157651476Y-70206890D01*
X157530155Y-69977000D01*
X156337000Y-69977000D01*
X156083000Y-69977000D01*
X154889845Y-69977000D01*
X154768524Y-70206890D01*
X152561691Y-70206890D01*
X152513794Y-70158993D01*
X152489991Y-70129989D01*
X152374266Y-70035016D01*
X152242237Y-69964444D01*
X152233580Y-69961818D01*
X152274180Y-69949502D01*
X152384494Y-69890537D01*
X152481185Y-69811185D01*
X152560537Y-69714494D01*
X152619502Y-69604180D01*
X152655812Y-69484482D01*
X152668072Y-69360000D01*
X152665000Y-69070750D01*
X152506250Y-68912000D01*
X151257000Y-68912000D01*
X151257000Y-68932000D01*
X151003000Y-68932000D01*
X151003000Y-68912000D01*
X149753750Y-68912000D01*
X149595000Y-69070750D01*
X149591928Y-69360000D01*
X149604188Y-69484482D01*
X149640498Y-69604180D01*
X149699463Y-69714494D01*
X149778815Y-69811185D01*
X149875506Y-69890537D01*
X149911899Y-69909990D01*
X149724793Y-69909990D01*
X146810000Y-66995199D01*
X146810000Y-66818572D01*
X146885701Y-66859035D01*
X147031193Y-66903170D01*
X147182500Y-66918072D01*
X147457500Y-66918072D01*
X147608807Y-66903170D01*
X147642468Y-66892959D01*
X147594774Y-67008102D01*
X147555000Y-67208061D01*
X147555000Y-67411939D01*
X147594774Y-67611898D01*
X147672795Y-67800256D01*
X147786063Y-67969774D01*
X147930226Y-68113937D01*
X148099744Y-68227205D01*
X148288102Y-68305226D01*
X148488061Y-68345000D01*
X148691939Y-68345000D01*
X148891898Y-68305226D01*
X149080256Y-68227205D01*
X149106005Y-68210000D01*
X149591928Y-68210000D01*
X149595000Y-68499250D01*
X149753750Y-68658000D01*
X151003000Y-68658000D01*
X151003000Y-67733750D01*
X151257000Y-67733750D01*
X151257000Y-68658000D01*
X152506250Y-68658000D01*
X152665000Y-68499250D01*
X152668072Y-68210000D01*
X152655812Y-68085518D01*
X152619502Y-67965820D01*
X152560537Y-67855506D01*
X152481185Y-67758815D01*
X152384494Y-67679463D01*
X152274180Y-67620498D01*
X152154482Y-67584188D01*
X152030000Y-67571928D01*
X151415750Y-67575000D01*
X151257000Y-67733750D01*
X151003000Y-67733750D01*
X150844250Y-67575000D01*
X150230000Y-67571928D01*
X150105518Y-67584188D01*
X149985820Y-67620498D01*
X149875506Y-67679463D01*
X149778815Y-67758815D01*
X149699463Y-67855506D01*
X149640498Y-67965820D01*
X149604188Y-68085518D01*
X149591928Y-68210000D01*
X149106005Y-68210000D01*
X149249774Y-68113937D01*
X149393937Y-67969774D01*
X149507205Y-67800256D01*
X149585226Y-67611898D01*
X149625000Y-67411939D01*
X149625000Y-67208061D01*
X149585226Y-67008102D01*
X149507205Y-66819744D01*
X149393937Y-66650226D01*
X149350000Y-66606289D01*
X149350000Y-66600637D01*
X149372365Y-66573385D01*
X149444035Y-66439299D01*
X149488170Y-66293807D01*
X149503072Y-66142500D01*
X149503072Y-65509999D01*
X149591928Y-65509999D01*
X149591928Y-66160001D01*
X149608992Y-66333255D01*
X149659528Y-66499851D01*
X149741595Y-66653387D01*
X149852038Y-66787962D01*
X149986613Y-66898405D01*
X150140149Y-66980472D01*
X150306745Y-67031008D01*
X150479999Y-67048072D01*
X151780001Y-67048072D01*
X151953255Y-67031008D01*
X152030991Y-67007427D01*
X152098102Y-67035226D01*
X152298061Y-67075000D01*
X152501939Y-67075000D01*
X152701898Y-67035226D01*
X152890256Y-66957205D01*
X153059774Y-66843937D01*
X153203937Y-66699774D01*
X153317205Y-66530256D01*
X153395226Y-66341898D01*
X153435000Y-66141939D01*
X153435000Y-65938061D01*
X153395226Y-65738102D01*
X153317205Y-65549744D01*
X153203937Y-65380226D01*
X153059774Y-65236063D01*
X152890256Y-65122795D01*
X152701898Y-65044774D01*
X152510227Y-65006649D01*
X152407962Y-64882038D01*
X152273387Y-64771595D01*
X152119851Y-64689528D01*
X151953255Y-64638992D01*
X151780001Y-64621928D01*
X150479999Y-64621928D01*
X150306745Y-64638992D01*
X150140149Y-64689528D01*
X149986613Y-64771595D01*
X149852038Y-64882038D01*
X149741595Y-65016613D01*
X149659528Y-65170149D01*
X149608992Y-65336745D01*
X149591928Y-65509999D01*
X149503072Y-65509999D01*
X149503072Y-64817500D01*
X149488170Y-64666193D01*
X149444035Y-64520701D01*
X149372365Y-64386615D01*
X149275912Y-64269088D01*
X149158385Y-64172635D01*
X149024299Y-64100965D01*
X148878807Y-64056830D01*
X148727500Y-64041928D01*
X148452500Y-64041928D01*
X148301193Y-64056830D01*
X148155701Y-64100965D01*
X148021615Y-64172635D01*
X147955000Y-64227305D01*
X147888385Y-64172635D01*
X147754299Y-64100965D01*
X147608807Y-64056830D01*
X147457500Y-64041928D01*
X147182500Y-64041928D01*
X147031193Y-64056830D01*
X146885701Y-64100965D01*
X146751615Y-64172635D01*
X146685000Y-64227305D01*
X146618385Y-64172635D01*
X146484299Y-64100965D01*
X146338807Y-64056830D01*
X146187500Y-64041928D01*
X145912500Y-64041928D01*
X145761193Y-64056830D01*
X145615701Y-64100965D01*
X145481615Y-64172635D01*
X145415000Y-64227305D01*
X145348385Y-64172635D01*
X145214299Y-64100965D01*
X145068807Y-64056830D01*
X144917500Y-64041928D01*
X144642500Y-64041928D01*
X144491193Y-64056830D01*
X144345701Y-64100965D01*
X144211615Y-64172635D01*
X144145000Y-64227305D01*
X144078385Y-64172635D01*
X143944299Y-64100965D01*
X143798807Y-64056830D01*
X143647500Y-64041928D01*
X143372500Y-64041928D01*
X143221193Y-64056830D01*
X143075701Y-64100965D01*
X142941615Y-64172635D01*
X142875000Y-64227305D01*
X142808385Y-64172635D01*
X142674299Y-64100965D01*
X142635581Y-64089220D01*
X143734802Y-62990000D01*
X154931822Y-62990000D01*
X155056525Y-63176632D01*
X155263368Y-63383475D01*
X155437760Y-63500000D01*
X155263368Y-63616525D01*
X155056525Y-63823368D01*
X154894010Y-64066589D01*
X154782068Y-64336842D01*
X154725000Y-64623740D01*
X154725000Y-64916260D01*
X154782068Y-65203158D01*
X154894010Y-65473411D01*
X155056525Y-65716632D01*
X155263368Y-65923475D01*
X155437760Y-66040000D01*
X155263368Y-66156525D01*
X155056525Y-66363368D01*
X154894010Y-66606589D01*
X154782068Y-66876842D01*
X154725000Y-67163740D01*
X154725000Y-67456260D01*
X154782068Y-67743158D01*
X154894010Y-68013411D01*
X155056525Y-68256632D01*
X155263368Y-68463475D01*
X155445534Y-68585195D01*
X155328645Y-68654822D01*
X155112412Y-68849731D01*
X154938359Y-69083080D01*
X154813175Y-69345901D01*
X154768524Y-69493110D01*
X154889845Y-69723000D01*
X156083000Y-69723000D01*
X156083000Y-69703000D01*
X156337000Y-69703000D01*
X156337000Y-69723000D01*
X157530155Y-69723000D01*
X157651476Y-69493110D01*
X157606825Y-69345901D01*
X157481641Y-69083080D01*
X157307588Y-68849731D01*
X157091355Y-68654822D01*
X156974466Y-68585195D01*
X157156632Y-68463475D01*
X157363475Y-68256632D01*
X157525990Y-68013411D01*
X157637932Y-67743158D01*
X157695000Y-67456260D01*
X157695000Y-67163740D01*
X157637932Y-66876842D01*
X157525990Y-66606589D01*
X157363475Y-66363368D01*
X157156632Y-66156525D01*
X156982240Y-66040000D01*
X157156632Y-65923475D01*
X157363475Y-65716632D01*
X157525990Y-65473411D01*
X157637932Y-65203158D01*
X157695000Y-64916260D01*
X157695000Y-64623740D01*
X157637932Y-64336842D01*
X157525990Y-64066589D01*
X157363475Y-63823368D01*
X157156632Y-63616525D01*
X156982240Y-63500000D01*
X157156632Y-63383475D01*
X157363475Y-63176632D01*
X157525990Y-62933411D01*
X157637932Y-62663158D01*
X157695000Y-62376260D01*
X157695000Y-62083740D01*
X157637932Y-61796842D01*
X157525990Y-61526589D01*
X157363475Y-61283368D01*
X157156632Y-61076525D01*
X156982240Y-60960000D01*
X157156632Y-60843475D01*
X157363475Y-60636632D01*
X157525990Y-60393411D01*
X157637932Y-60123158D01*
X157695000Y-59836260D01*
X157695000Y-59543740D01*
X157637932Y-59256842D01*
X157525990Y-58986589D01*
X157363475Y-58743368D01*
X157231620Y-58611513D01*
X157304180Y-58589502D01*
X157414494Y-58530537D01*
X157511185Y-58451185D01*
X157590537Y-58354494D01*
X157649502Y-58244180D01*
X157685812Y-58124482D01*
X157698072Y-58000000D01*
X157698072Y-56300000D01*
X157685812Y-56175518D01*
X157649502Y-56055820D01*
X157590537Y-55945506D01*
X157511185Y-55848815D01*
X157414494Y-55769463D01*
X157304180Y-55710498D01*
X157184482Y-55674188D01*
X157060000Y-55661928D01*
X155360000Y-55661928D01*
X155235518Y-55674188D01*
X155115820Y-55710498D01*
X155005506Y-55769463D01*
X154908815Y-55848815D01*
X154829463Y-55945506D01*
X154770498Y-56055820D01*
X154734188Y-56175518D01*
X154721928Y-56300000D01*
X154721928Y-56390000D01*
X149897322Y-56390000D01*
X149859999Y-56386324D01*
X149822676Y-56390000D01*
X149822667Y-56390000D01*
X149711014Y-56400997D01*
X149567753Y-56444454D01*
X149435724Y-56515026D01*
X149319999Y-56609999D01*
X149296201Y-56638997D01*
X148386800Y-57548399D01*
X148301193Y-57556830D01*
X148155701Y-57600965D01*
X148021615Y-57672635D01*
X147955000Y-57727305D01*
X147888385Y-57672635D01*
X147885534Y-57671111D01*
X147860001Y-57639999D01*
X147744275Y-57545026D01*
X147612246Y-57474454D01*
X147468985Y-57430997D01*
X147398895Y-57424094D01*
X147085000Y-57110199D01*
X147085000Y-57048061D01*
X147045226Y-56848102D01*
X146967205Y-56659744D01*
X146853937Y-56490226D01*
X146709774Y-56346063D01*
X146540256Y-56232795D01*
X146351898Y-56154774D01*
X146151939Y-56115000D01*
X145948061Y-56115000D01*
X145748102Y-56154774D01*
X145559744Y-56232795D01*
X145390226Y-56346063D01*
X145340545Y-56395744D01*
X144828803Y-55884002D01*
X144828799Y-55883997D01*
X144683784Y-55738982D01*
X144659982Y-55709980D01*
X144544257Y-55615007D01*
X144412228Y-55544435D01*
X144268967Y-55500978D01*
X144157314Y-55489981D01*
X144157303Y-55489981D01*
X144119981Y-55486305D01*
X144082659Y-55489981D01*
X138097341Y-55489981D01*
X138060018Y-55486305D01*
X138022695Y-55489981D01*
X138022686Y-55489981D01*
X137911033Y-55500978D01*
X137767772Y-55544435D01*
X137635743Y-55615007D01*
X137520018Y-55709980D01*
X137496220Y-55738978D01*
X135378998Y-57856201D01*
X135350000Y-57879999D01*
X135326202Y-57908997D01*
X135326201Y-57908998D01*
X135255026Y-57995724D01*
X135184454Y-58127754D01*
X135161023Y-58205000D01*
X135140998Y-58271014D01*
X135131087Y-58371637D01*
X135126324Y-58420000D01*
X135130001Y-58457332D01*
X135130000Y-70805198D01*
X135033270Y-70901928D01*
X133770000Y-70901928D01*
X133645518Y-70914188D01*
X133525820Y-70950498D01*
X133415506Y-71009463D01*
X133318815Y-71088815D01*
X133239463Y-71185506D01*
X133180498Y-71295820D01*
X133144188Y-71415518D01*
X133131928Y-71540000D01*
X128930000Y-71540000D01*
X128930000Y-70206890D01*
X129368524Y-70206890D01*
X129413175Y-70354099D01*
X129538359Y-70616920D01*
X129712412Y-70850269D01*
X129928645Y-71045178D01*
X130178748Y-71194157D01*
X130453109Y-71291481D01*
X130683000Y-71170814D01*
X130683000Y-69977000D01*
X130937000Y-69977000D01*
X130937000Y-71170814D01*
X131166891Y-71291481D01*
X131441252Y-71194157D01*
X131691355Y-71045178D01*
X131907588Y-70850269D01*
X132081641Y-70616920D01*
X132206825Y-70354099D01*
X132251476Y-70206890D01*
X132130155Y-69977000D01*
X130937000Y-69977000D01*
X130683000Y-69977000D01*
X129489845Y-69977000D01*
X129368524Y-70206890D01*
X128930000Y-70206890D01*
X128930000Y-56300000D01*
X129321928Y-56300000D01*
X129321928Y-58000000D01*
X129334188Y-58124482D01*
X129370498Y-58244180D01*
X129429463Y-58354494D01*
X129508815Y-58451185D01*
X129605506Y-58530537D01*
X129715820Y-58589502D01*
X129788380Y-58611513D01*
X129656525Y-58743368D01*
X129494010Y-58986589D01*
X129382068Y-59256842D01*
X129325000Y-59543740D01*
X129325000Y-59836260D01*
X129382068Y-60123158D01*
X129494010Y-60393411D01*
X129656525Y-60636632D01*
X129863368Y-60843475D01*
X130037760Y-60960000D01*
X129863368Y-61076525D01*
X129656525Y-61283368D01*
X129494010Y-61526589D01*
X129382068Y-61796842D01*
X129325000Y-62083740D01*
X129325000Y-62376260D01*
X129382068Y-62663158D01*
X129494010Y-62933411D01*
X129656525Y-63176632D01*
X129863368Y-63383475D01*
X130037760Y-63500000D01*
X129863368Y-63616525D01*
X129656525Y-63823368D01*
X129494010Y-64066589D01*
X129382068Y-64336842D01*
X129325000Y-64623740D01*
X129325000Y-64916260D01*
X129382068Y-65203158D01*
X129494010Y-65473411D01*
X129656525Y-65716632D01*
X129863368Y-65923475D01*
X130037760Y-66040000D01*
X129863368Y-66156525D01*
X129656525Y-66363368D01*
X129494010Y-66606589D01*
X129382068Y-66876842D01*
X129325000Y-67163740D01*
X129325000Y-67456260D01*
X129382068Y-67743158D01*
X129494010Y-68013411D01*
X129656525Y-68256632D01*
X129863368Y-68463475D01*
X130045534Y-68585195D01*
X129928645Y-68654822D01*
X129712412Y-68849731D01*
X129538359Y-69083080D01*
X129413175Y-69345901D01*
X129368524Y-69493110D01*
X129489845Y-69723000D01*
X130683000Y-69723000D01*
X130683000Y-69703000D01*
X130937000Y-69703000D01*
X130937000Y-69723000D01*
X132130155Y-69723000D01*
X132251476Y-69493110D01*
X132206825Y-69345901D01*
X132081641Y-69083080D01*
X131907588Y-68849731D01*
X131691355Y-68654822D01*
X131574466Y-68585195D01*
X131756632Y-68463475D01*
X131963475Y-68256632D01*
X132125990Y-68013411D01*
X132237932Y-67743158D01*
X132295000Y-67456260D01*
X132295000Y-67163740D01*
X132237932Y-66876842D01*
X132125990Y-66606589D01*
X131963475Y-66363368D01*
X131756632Y-66156525D01*
X131582240Y-66040000D01*
X131756632Y-65923475D01*
X131963475Y-65716632D01*
X132125990Y-65473411D01*
X132237932Y-65203158D01*
X132295000Y-64916260D01*
X132295000Y-64623740D01*
X132237932Y-64336842D01*
X132125990Y-64066589D01*
X131963475Y-63823368D01*
X131756632Y-63616525D01*
X131582240Y-63500000D01*
X131756632Y-63383475D01*
X131963475Y-63176632D01*
X132125990Y-62933411D01*
X132237932Y-62663158D01*
X132295000Y-62376260D01*
X132295000Y-62083740D01*
X132237932Y-61796842D01*
X132125990Y-61526589D01*
X131963475Y-61283368D01*
X131756632Y-61076525D01*
X131582240Y-60960000D01*
X131756632Y-60843475D01*
X131963475Y-60636632D01*
X132125990Y-60393411D01*
X132237932Y-60123158D01*
X132295000Y-59836260D01*
X132295000Y-59543740D01*
X132237932Y-59256842D01*
X132125990Y-58986589D01*
X131963475Y-58743368D01*
X131831620Y-58611513D01*
X131904180Y-58589502D01*
X132014494Y-58530537D01*
X132111185Y-58451185D01*
X132190537Y-58354494D01*
X132249502Y-58244180D01*
X132285812Y-58124482D01*
X132298072Y-58000000D01*
X132298072Y-56300000D01*
X132285812Y-56175518D01*
X132249502Y-56055820D01*
X132190537Y-55945506D01*
X132111185Y-55848815D01*
X132014494Y-55769463D01*
X131904180Y-55710498D01*
X131784482Y-55674188D01*
X131660000Y-55661928D01*
X129960000Y-55661928D01*
X129835518Y-55674188D01*
X129715820Y-55710498D01*
X129605506Y-55769463D01*
X129508815Y-55848815D01*
X129429463Y-55945506D01*
X129370498Y-56055820D01*
X129334188Y-56175518D01*
X129321928Y-56300000D01*
X128930000Y-56300000D01*
X128930000Y-55270000D01*
X158090001Y-55270000D01*
X158090000Y-74270000D01*
G37*
%TD.AperFunction*%
D14*
X139827000Y-58853000D02*
X139847000Y-58853000D01*
X139847000Y-59107000D01*
X139827000Y-59107000D01*
X139827000Y-60256250D01*
X139985750Y-60415000D01*
X140102490Y-60405206D01*
X140222012Y-60368320D01*
X140332041Y-60308826D01*
X140379669Y-60269354D01*
X140401615Y-60287365D01*
X140404468Y-60288890D01*
X140430000Y-60320001D01*
X140458998Y-60343799D01*
X141211918Y-61096720D01*
X141244774Y-61261898D01*
X141322795Y-61450256D01*
X141436063Y-61619774D01*
X141580226Y-61763937D01*
X141610819Y-61784379D01*
X140930198Y-62465000D01*
X140868061Y-62465000D01*
X140668102Y-62504774D01*
X140479744Y-62582795D01*
X140310226Y-62696063D01*
X140166063Y-62840226D01*
X140052795Y-63009744D01*
X139974774Y-63198102D01*
X139935000Y-63398061D01*
X139935000Y-63460198D01*
X139426401Y-63968798D01*
X139407754Y-63974454D01*
X139275725Y-64045026D01*
X139190000Y-64115379D01*
X139190000Y-60372027D01*
X139297510Y-60405206D01*
X139414250Y-60415000D01*
X139573000Y-60256250D01*
X139573000Y-59107000D01*
X139553000Y-59107000D01*
X139553000Y-58853000D01*
X139573000Y-58853000D01*
X139573000Y-58833000D01*
X139827000Y-58833000D01*
X139827000Y-58853000D01*
%TA.AperFunction,Conductor*%
D15*
G36*
X139827000Y-58853000D02*
G01*
X139847000Y-58853000D01*
X139847000Y-59107000D01*
X139827000Y-59107000D01*
X139827000Y-60256250D01*
X139985750Y-60415000D01*
X140102490Y-60405206D01*
X140222012Y-60368320D01*
X140332041Y-60308826D01*
X140379669Y-60269354D01*
X140401615Y-60287365D01*
X140404468Y-60288890D01*
X140430000Y-60320001D01*
X140458998Y-60343799D01*
X141211918Y-61096720D01*
X141244774Y-61261898D01*
X141322795Y-61450256D01*
X141436063Y-61619774D01*
X141580226Y-61763937D01*
X141610819Y-61784379D01*
X140930198Y-62465000D01*
X140868061Y-62465000D01*
X140668102Y-62504774D01*
X140479744Y-62582795D01*
X140310226Y-62696063D01*
X140166063Y-62840226D01*
X140052795Y-63009744D01*
X139974774Y-63198102D01*
X139935000Y-63398061D01*
X139935000Y-63460198D01*
X139426401Y-63968798D01*
X139407754Y-63974454D01*
X139275725Y-64045026D01*
X139190000Y-64115379D01*
X139190000Y-60372027D01*
X139297510Y-60405206D01*
X139414250Y-60415000D01*
X139573000Y-60256250D01*
X139573000Y-59107000D01*
X139553000Y-59107000D01*
X139553000Y-58853000D01*
X139573000Y-58853000D01*
X139573000Y-58833000D01*
X139827000Y-58833000D01*
X139827000Y-58853000D01*
G37*
%TD.AperFunction*%
%TD*%
M02*
