%TF.GenerationSoftware,KiCad,Pcbnew,5.1.7-a382d34a8~87~ubuntu16.04.1*%
%TF.CreationDate,2020-10-06T20:10:28+02:00*%
%TF.ProjectId,ShiftIn-Board,53686966-7449-46e2-9d42-6f6172642e6b,rev?*%
%TF.SameCoordinates,Original*%
%TF.FileFunction,Soldermask,Top*%
%TF.FilePolarity,Negative*%
%FSLAX46Y46*%
G04 Gerber Fmt 4.6, Leading zero omitted, Abs format (unit mm)*
G04 Created by KiCad (PCBNEW 5.1.7-a382d34a8~87~ubuntu16.04.1) date 2020-10-06 20:10:28*
%MOMM*%
%LPD*%
G01*
G04 APERTURE LIST*
%ADD10O,1.700000X1.700000*%
%ADD11R,1.700000X1.700000*%
G04 APERTURE END LIST*
%TO.C,U1*%
G36*
G01*
X139837500Y-59780000D02*
X139562500Y-59780000D01*
G75*
G02*
X139425000Y-59642500I0J137500D01*
G01*
X139425000Y-58317500D01*
G75*
G02*
X139562500Y-58180000I137500J0D01*
G01*
X139837500Y-58180000D01*
G75*
G02*
X139975000Y-58317500I0J-137500D01*
G01*
X139975000Y-59642500D01*
G75*
G02*
X139837500Y-59780000I-137500J0D01*
G01*
G37*
G36*
G01*
X141107500Y-59780000D02*
X140832500Y-59780000D01*
G75*
G02*
X140695000Y-59642500I0J137500D01*
G01*
X140695000Y-58317500D01*
G75*
G02*
X140832500Y-58180000I137500J0D01*
G01*
X141107500Y-58180000D01*
G75*
G02*
X141245000Y-58317500I0J-137500D01*
G01*
X141245000Y-59642500D01*
G75*
G02*
X141107500Y-59780000I-137500J0D01*
G01*
G37*
G36*
G01*
X142377500Y-59780000D02*
X142102500Y-59780000D01*
G75*
G02*
X141965000Y-59642500I0J137500D01*
G01*
X141965000Y-58317500D01*
G75*
G02*
X142102500Y-58180000I137500J0D01*
G01*
X142377500Y-58180000D01*
G75*
G02*
X142515000Y-58317500I0J-137500D01*
G01*
X142515000Y-59642500D01*
G75*
G02*
X142377500Y-59780000I-137500J0D01*
G01*
G37*
G36*
G01*
X143647500Y-59780000D02*
X143372500Y-59780000D01*
G75*
G02*
X143235000Y-59642500I0J137500D01*
G01*
X143235000Y-58317500D01*
G75*
G02*
X143372500Y-58180000I137500J0D01*
G01*
X143647500Y-58180000D01*
G75*
G02*
X143785000Y-58317500I0J-137500D01*
G01*
X143785000Y-59642500D01*
G75*
G02*
X143647500Y-59780000I-137500J0D01*
G01*
G37*
G36*
G01*
X144917500Y-59780000D02*
X144642500Y-59780000D01*
G75*
G02*
X144505000Y-59642500I0J137500D01*
G01*
X144505000Y-58317500D01*
G75*
G02*
X144642500Y-58180000I137500J0D01*
G01*
X144917500Y-58180000D01*
G75*
G02*
X145055000Y-58317500I0J-137500D01*
G01*
X145055000Y-59642500D01*
G75*
G02*
X144917500Y-59780000I-137500J0D01*
G01*
G37*
G36*
G01*
X146187500Y-59780000D02*
X145912500Y-59780000D01*
G75*
G02*
X145775000Y-59642500I0J137500D01*
G01*
X145775000Y-58317500D01*
G75*
G02*
X145912500Y-58180000I137500J0D01*
G01*
X146187500Y-58180000D01*
G75*
G02*
X146325000Y-58317500I0J-137500D01*
G01*
X146325000Y-59642500D01*
G75*
G02*
X146187500Y-59780000I-137500J0D01*
G01*
G37*
G36*
G01*
X147457500Y-59780000D02*
X147182500Y-59780000D01*
G75*
G02*
X147045000Y-59642500I0J137500D01*
G01*
X147045000Y-58317500D01*
G75*
G02*
X147182500Y-58180000I137500J0D01*
G01*
X147457500Y-58180000D01*
G75*
G02*
X147595000Y-58317500I0J-137500D01*
G01*
X147595000Y-59642500D01*
G75*
G02*
X147457500Y-59780000I-137500J0D01*
G01*
G37*
G36*
G01*
X148727500Y-59780000D02*
X148452500Y-59780000D01*
G75*
G02*
X148315000Y-59642500I0J137500D01*
G01*
X148315000Y-58317500D01*
G75*
G02*
X148452500Y-58180000I137500J0D01*
G01*
X148727500Y-58180000D01*
G75*
G02*
X148865000Y-58317500I0J-137500D01*
G01*
X148865000Y-59642500D01*
G75*
G02*
X148727500Y-59780000I-137500J0D01*
G01*
G37*
G36*
G01*
X148727500Y-66280000D02*
X148452500Y-66280000D01*
G75*
G02*
X148315000Y-66142500I0J137500D01*
G01*
X148315000Y-64817500D01*
G75*
G02*
X148452500Y-64680000I137500J0D01*
G01*
X148727500Y-64680000D01*
G75*
G02*
X148865000Y-64817500I0J-137500D01*
G01*
X148865000Y-66142500D01*
G75*
G02*
X148727500Y-66280000I-137500J0D01*
G01*
G37*
G36*
G01*
X147457500Y-66280000D02*
X147182500Y-66280000D01*
G75*
G02*
X147045000Y-66142500I0J137500D01*
G01*
X147045000Y-64817500D01*
G75*
G02*
X147182500Y-64680000I137500J0D01*
G01*
X147457500Y-64680000D01*
G75*
G02*
X147595000Y-64817500I0J-137500D01*
G01*
X147595000Y-66142500D01*
G75*
G02*
X147457500Y-66280000I-137500J0D01*
G01*
G37*
G36*
G01*
X146187500Y-66280000D02*
X145912500Y-66280000D01*
G75*
G02*
X145775000Y-66142500I0J137500D01*
G01*
X145775000Y-64817500D01*
G75*
G02*
X145912500Y-64680000I137500J0D01*
G01*
X146187500Y-64680000D01*
G75*
G02*
X146325000Y-64817500I0J-137500D01*
G01*
X146325000Y-66142500D01*
G75*
G02*
X146187500Y-66280000I-137500J0D01*
G01*
G37*
G36*
G01*
X144917500Y-66280000D02*
X144642500Y-66280000D01*
G75*
G02*
X144505000Y-66142500I0J137500D01*
G01*
X144505000Y-64817500D01*
G75*
G02*
X144642500Y-64680000I137500J0D01*
G01*
X144917500Y-64680000D01*
G75*
G02*
X145055000Y-64817500I0J-137500D01*
G01*
X145055000Y-66142500D01*
G75*
G02*
X144917500Y-66280000I-137500J0D01*
G01*
G37*
G36*
G01*
X143647500Y-66280000D02*
X143372500Y-66280000D01*
G75*
G02*
X143235000Y-66142500I0J137500D01*
G01*
X143235000Y-64817500D01*
G75*
G02*
X143372500Y-64680000I137500J0D01*
G01*
X143647500Y-64680000D01*
G75*
G02*
X143785000Y-64817500I0J-137500D01*
G01*
X143785000Y-66142500D01*
G75*
G02*
X143647500Y-66280000I-137500J0D01*
G01*
G37*
G36*
G01*
X142377500Y-66280000D02*
X142102500Y-66280000D01*
G75*
G02*
X141965000Y-66142500I0J137500D01*
G01*
X141965000Y-64817500D01*
G75*
G02*
X142102500Y-64680000I137500J0D01*
G01*
X142377500Y-64680000D01*
G75*
G02*
X142515000Y-64817500I0J-137500D01*
G01*
X142515000Y-66142500D01*
G75*
G02*
X142377500Y-66280000I-137500J0D01*
G01*
G37*
G36*
G01*
X141107500Y-66280000D02*
X140832500Y-66280000D01*
G75*
G02*
X140695000Y-66142500I0J137500D01*
G01*
X140695000Y-64817500D01*
G75*
G02*
X140832500Y-64680000I137500J0D01*
G01*
X141107500Y-64680000D01*
G75*
G02*
X141245000Y-64817500I0J-137500D01*
G01*
X141245000Y-66142500D01*
G75*
G02*
X141107500Y-66280000I-137500J0D01*
G01*
G37*
G36*
G01*
X139837500Y-66280000D02*
X139562500Y-66280000D01*
G75*
G02*
X139425000Y-66142500I0J137500D01*
G01*
X139425000Y-64817500D01*
G75*
G02*
X139562500Y-64680000I137500J0D01*
G01*
X139837500Y-64680000D01*
G75*
G02*
X139975000Y-64817500I0J-137500D01*
G01*
X139975000Y-66142500D01*
G75*
G02*
X139837500Y-66280000I-137500J0D01*
G01*
G37*
%TD*%
D10*
%TO.C,J3*%
X152400000Y-72390000D03*
X149860000Y-72390000D03*
X147320000Y-72390000D03*
X144780000Y-72390000D03*
X142240000Y-72390000D03*
X139700000Y-72390000D03*
X137160000Y-72390000D03*
D11*
X134620000Y-72390000D03*
%TD*%
D10*
%TO.C,J2*%
X156210000Y-69850000D03*
X156210000Y-67310000D03*
X156210000Y-64770000D03*
X156210000Y-62230000D03*
X156210000Y-59690000D03*
D11*
X156210000Y-57150000D03*
%TD*%
D10*
%TO.C,J1*%
X130810000Y-69850000D03*
X130810000Y-67310000D03*
X130810000Y-64770000D03*
X130810000Y-62230000D03*
X130810000Y-59690000D03*
D11*
X130810000Y-57150000D03*
%TD*%
%TO.C,C1*%
G36*
G01*
X151780001Y-66410000D02*
X150479999Y-66410000D01*
G75*
G02*
X150230000Y-66160001I0J249999D01*
G01*
X150230000Y-65509999D01*
G75*
G02*
X150479999Y-65260000I249999J0D01*
G01*
X151780001Y-65260000D01*
G75*
G02*
X152030000Y-65509999I0J-249999D01*
G01*
X152030000Y-66160001D01*
G75*
G02*
X151780001Y-66410000I-249999J0D01*
G01*
G37*
G36*
G01*
X151780001Y-69360000D02*
X150479999Y-69360000D01*
G75*
G02*
X150230000Y-69110001I0J249999D01*
G01*
X150230000Y-68459999D01*
G75*
G02*
X150479999Y-68210000I249999J0D01*
G01*
X151780001Y-68210000D01*
G75*
G02*
X152030000Y-68459999I0J-249999D01*
G01*
X152030000Y-69110001D01*
G75*
G02*
X151780001Y-69360000I-249999J0D01*
G01*
G37*
%TD*%
M02*
