%TF.GenerationSoftware,KiCad,Pcbnew,5.1.7-a382d34a8~87~ubuntu16.04.1*%
%TF.CreationDate,2020-10-08T21:47:54+02:00*%
%TF.ProjectId,ShiftIn-Board,53686966-7449-46e2-9d42-6f6172642e6b,rev?*%
%TF.SameCoordinates,Original*%
%TF.FileFunction,Copper,L2,Bot*%
%TF.FilePolarity,Positive*%
%FSLAX46Y46*%
G04 Gerber Fmt 4.6, Leading zero omitted, Abs format (unit mm)*
G04 Created by KiCad (PCBNEW 5.1.7-a382d34a8~87~ubuntu16.04.1) date 2020-10-08 21:47:54*
%MOMM*%
%LPD*%
G01*
G04 APERTURE LIST*
%TA.AperFunction,ComponentPad*%
%ADD10O,1.700000X1.700000*%
%TD*%
%TA.AperFunction,ComponentPad*%
%ADD11R,1.700000X1.700000*%
%TD*%
%TA.AperFunction,ViaPad*%
%ADD12C,0.800000*%
%TD*%
%TA.AperFunction,Conductor*%
%ADD13C,0.250000*%
%TD*%
%TA.AperFunction,Conductor*%
%ADD14C,0.254000*%
%TD*%
%TA.AperFunction,Conductor*%
%ADD15C,0.100000*%
%TD*%
G04 APERTURE END LIST*
D10*
%TO.P,J3,8*%
%TO.N,Net-(J3-Pad8)*%
X152400000Y-72390000D03*
%TO.P,J3,7*%
%TO.N,Net-(J3-Pad7)*%
X149860000Y-72390000D03*
%TO.P,J3,6*%
%TO.N,Net-(J3-Pad6)*%
X147320000Y-72390000D03*
%TO.P,J3,5*%
%TO.N,Net-(J3-Pad5)*%
X144780000Y-72390000D03*
%TO.P,J3,4*%
%TO.N,Net-(J3-Pad4)*%
X142240000Y-72390000D03*
%TO.P,J3,3*%
%TO.N,Net-(J3-Pad3)*%
X139700000Y-72390000D03*
%TO.P,J3,2*%
%TO.N,Net-(J3-Pad2)*%
X137160000Y-72390000D03*
D11*
%TO.P,J3,1*%
%TO.N,Net-(J3-Pad1)*%
X134620000Y-72390000D03*
%TD*%
D10*
%TO.P,J2,6*%
%TO.N,VCC*%
X156210000Y-69850000D03*
%TO.P,J2,5*%
%TO.N,GND*%
X156210000Y-67310000D03*
%TO.P,J2,4*%
%TO.N,Net-(J1-Pad4)*%
X156210000Y-64770000D03*
%TO.P,J2,3*%
%TO.N,Net-(J1-Pad3)*%
X156210000Y-62230000D03*
%TO.P,J2,2*%
%TO.N,Net-(J1-Pad2)*%
X156210000Y-59690000D03*
D11*
%TO.P,J2,1*%
%TO.N,Net-(J2-Pad1)*%
X156210000Y-57150000D03*
%TD*%
D10*
%TO.P,J1,6*%
%TO.N,VCC*%
X130810000Y-69850000D03*
%TO.P,J1,5*%
%TO.N,GND*%
X130810000Y-67310000D03*
%TO.P,J1,4*%
%TO.N,Net-(J1-Pad4)*%
X130810000Y-64770000D03*
%TO.P,J1,3*%
%TO.N,Net-(J1-Pad3)*%
X130810000Y-62230000D03*
%TO.P,J1,2*%
%TO.N,Net-(J1-Pad2)*%
X130810000Y-59690000D03*
D11*
%TO.P,J1,1*%
%TO.N,Net-(J1-Pad1)*%
X130810000Y-57150000D03*
%TD*%
D12*
%TO.N,GND*%
X152400000Y-68580000D03*
X148590000Y-67310000D03*
%TO.N,Net-(J1-Pad4)*%
X149860000Y-60960000D03*
%TO.N,Net-(J1-Pad3)*%
X140970000Y-67310000D03*
%TO.N,Net-(J1-Pad2)*%
X139700000Y-66040000D03*
%TO.N,Net-(J1-Pad1)*%
X146050000Y-57150000D03*
%TD*%
D13*
%TO.N,Net-(J1-Pad4)*%
X129634999Y-63594999D02*
X130810000Y-64770000D01*
X130340998Y-58420000D02*
X129634999Y-59125999D01*
X129634999Y-59125999D02*
X129634999Y-63594999D01*
X130340998Y-58420000D02*
X139700000Y-58420000D01*
X149860000Y-60960000D02*
X142240000Y-60960000D01*
X142240000Y-60960000D02*
X139700000Y-58420000D01*
%TO.N,Net-(J1-Pad3)*%
X140970000Y-67310000D02*
X134620000Y-67310000D01*
X134620000Y-67310000D02*
X133350000Y-66040000D01*
X133350000Y-64770000D02*
X130810000Y-62230000D01*
X133350000Y-66040000D02*
X133350000Y-64770000D01*
X155644990Y-62795010D02*
X156210000Y-62230000D01*
X145484990Y-62795010D02*
X155644990Y-62795010D01*
X140970000Y-67310000D02*
X145484990Y-62795010D01*
%TO.N,Net-(J1-Pad2)*%
X139700000Y-66040000D02*
X143510000Y-62230000D01*
X143510000Y-62230000D02*
X153670000Y-62230000D01*
X153670000Y-62230000D02*
X156210000Y-59690000D01*
X133350000Y-62230000D02*
X135890000Y-62230000D01*
X130810000Y-59690000D02*
X133350000Y-62230000D01*
X135890000Y-62230000D02*
X139700000Y-66040000D01*
X133350000Y-62230000D02*
X133465000Y-62345000D01*
%TO.N,Net-(J1-Pad1)*%
X146050000Y-57150000D02*
X130810000Y-57150000D01*
%TD*%
D14*
%TO.N,GND*%
X158090000Y-74270000D02*
X128930000Y-74270000D01*
X128930000Y-71540000D01*
X133131928Y-71540000D01*
X133131928Y-73240000D01*
X133144188Y-73364482D01*
X133180498Y-73484180D01*
X133239463Y-73594494D01*
X133318815Y-73691185D01*
X133415506Y-73770537D01*
X133525820Y-73829502D01*
X133645518Y-73865812D01*
X133770000Y-73878072D01*
X135470000Y-73878072D01*
X135594482Y-73865812D01*
X135714180Y-73829502D01*
X135824494Y-73770537D01*
X135921185Y-73691185D01*
X136000537Y-73594494D01*
X136059502Y-73484180D01*
X136081513Y-73411620D01*
X136213368Y-73543475D01*
X136456589Y-73705990D01*
X136726842Y-73817932D01*
X137013740Y-73875000D01*
X137306260Y-73875000D01*
X137593158Y-73817932D01*
X137863411Y-73705990D01*
X138106632Y-73543475D01*
X138313475Y-73336632D01*
X138430000Y-73162240D01*
X138546525Y-73336632D01*
X138753368Y-73543475D01*
X138996589Y-73705990D01*
X139266842Y-73817932D01*
X139553740Y-73875000D01*
X139846260Y-73875000D01*
X140133158Y-73817932D01*
X140403411Y-73705990D01*
X140646632Y-73543475D01*
X140853475Y-73336632D01*
X140970000Y-73162240D01*
X141086525Y-73336632D01*
X141293368Y-73543475D01*
X141536589Y-73705990D01*
X141806842Y-73817932D01*
X142093740Y-73875000D01*
X142386260Y-73875000D01*
X142673158Y-73817932D01*
X142943411Y-73705990D01*
X143186632Y-73543475D01*
X143393475Y-73336632D01*
X143510000Y-73162240D01*
X143626525Y-73336632D01*
X143833368Y-73543475D01*
X144076589Y-73705990D01*
X144346842Y-73817932D01*
X144633740Y-73875000D01*
X144926260Y-73875000D01*
X145213158Y-73817932D01*
X145483411Y-73705990D01*
X145726632Y-73543475D01*
X145933475Y-73336632D01*
X146050000Y-73162240D01*
X146166525Y-73336632D01*
X146373368Y-73543475D01*
X146616589Y-73705990D01*
X146886842Y-73817932D01*
X147173740Y-73875000D01*
X147466260Y-73875000D01*
X147753158Y-73817932D01*
X148023411Y-73705990D01*
X148266632Y-73543475D01*
X148473475Y-73336632D01*
X148590000Y-73162240D01*
X148706525Y-73336632D01*
X148913368Y-73543475D01*
X149156589Y-73705990D01*
X149426842Y-73817932D01*
X149713740Y-73875000D01*
X150006260Y-73875000D01*
X150293158Y-73817932D01*
X150563411Y-73705990D01*
X150806632Y-73543475D01*
X151013475Y-73336632D01*
X151130000Y-73162240D01*
X151246525Y-73336632D01*
X151453368Y-73543475D01*
X151696589Y-73705990D01*
X151966842Y-73817932D01*
X152253740Y-73875000D01*
X152546260Y-73875000D01*
X152833158Y-73817932D01*
X153103411Y-73705990D01*
X153346632Y-73543475D01*
X153553475Y-73336632D01*
X153715990Y-73093411D01*
X153827932Y-72823158D01*
X153885000Y-72536260D01*
X153885000Y-72243740D01*
X153827932Y-71956842D01*
X153715990Y-71686589D01*
X153553475Y-71443368D01*
X153346632Y-71236525D01*
X153103411Y-71074010D01*
X152833158Y-70962068D01*
X152546260Y-70905000D01*
X152253740Y-70905000D01*
X151966842Y-70962068D01*
X151696589Y-71074010D01*
X151453368Y-71236525D01*
X151246525Y-71443368D01*
X151130000Y-71617760D01*
X151013475Y-71443368D01*
X150806632Y-71236525D01*
X150563411Y-71074010D01*
X150293158Y-70962068D01*
X150006260Y-70905000D01*
X149713740Y-70905000D01*
X149426842Y-70962068D01*
X149156589Y-71074010D01*
X148913368Y-71236525D01*
X148706525Y-71443368D01*
X148590000Y-71617760D01*
X148473475Y-71443368D01*
X148266632Y-71236525D01*
X148023411Y-71074010D01*
X147753158Y-70962068D01*
X147466260Y-70905000D01*
X147173740Y-70905000D01*
X146886842Y-70962068D01*
X146616589Y-71074010D01*
X146373368Y-71236525D01*
X146166525Y-71443368D01*
X146050000Y-71617760D01*
X145933475Y-71443368D01*
X145726632Y-71236525D01*
X145483411Y-71074010D01*
X145213158Y-70962068D01*
X144926260Y-70905000D01*
X144633740Y-70905000D01*
X144346842Y-70962068D01*
X144076589Y-71074010D01*
X143833368Y-71236525D01*
X143626525Y-71443368D01*
X143510000Y-71617760D01*
X143393475Y-71443368D01*
X143186632Y-71236525D01*
X142943411Y-71074010D01*
X142673158Y-70962068D01*
X142386260Y-70905000D01*
X142093740Y-70905000D01*
X141806842Y-70962068D01*
X141536589Y-71074010D01*
X141293368Y-71236525D01*
X141086525Y-71443368D01*
X140970000Y-71617760D01*
X140853475Y-71443368D01*
X140646632Y-71236525D01*
X140403411Y-71074010D01*
X140133158Y-70962068D01*
X139846260Y-70905000D01*
X139553740Y-70905000D01*
X139266842Y-70962068D01*
X138996589Y-71074010D01*
X138753368Y-71236525D01*
X138546525Y-71443368D01*
X138430000Y-71617760D01*
X138313475Y-71443368D01*
X138106632Y-71236525D01*
X137863411Y-71074010D01*
X137593158Y-70962068D01*
X137306260Y-70905000D01*
X137013740Y-70905000D01*
X136726842Y-70962068D01*
X136456589Y-71074010D01*
X136213368Y-71236525D01*
X136081513Y-71368380D01*
X136059502Y-71295820D01*
X136000537Y-71185506D01*
X135921185Y-71088815D01*
X135824494Y-71009463D01*
X135714180Y-70950498D01*
X135594482Y-70914188D01*
X135470000Y-70901928D01*
X133770000Y-70901928D01*
X133645518Y-70914188D01*
X133525820Y-70950498D01*
X133415506Y-71009463D01*
X133318815Y-71088815D01*
X133239463Y-71185506D01*
X133180498Y-71295820D01*
X133144188Y-71415518D01*
X133131928Y-71540000D01*
X128930000Y-71540000D01*
X128930000Y-69703740D01*
X129325000Y-69703740D01*
X129325000Y-69996260D01*
X129382068Y-70283158D01*
X129494010Y-70553411D01*
X129656525Y-70796632D01*
X129863368Y-71003475D01*
X130106589Y-71165990D01*
X130376842Y-71277932D01*
X130663740Y-71335000D01*
X130956260Y-71335000D01*
X131243158Y-71277932D01*
X131513411Y-71165990D01*
X131756632Y-71003475D01*
X131963475Y-70796632D01*
X132125990Y-70553411D01*
X132237932Y-70283158D01*
X132295000Y-69996260D01*
X132295000Y-69703740D01*
X154725000Y-69703740D01*
X154725000Y-69996260D01*
X154782068Y-70283158D01*
X154894010Y-70553411D01*
X155056525Y-70796632D01*
X155263368Y-71003475D01*
X155506589Y-71165990D01*
X155776842Y-71277932D01*
X156063740Y-71335000D01*
X156356260Y-71335000D01*
X156643158Y-71277932D01*
X156913411Y-71165990D01*
X157156632Y-71003475D01*
X157363475Y-70796632D01*
X157525990Y-70553411D01*
X157637932Y-70283158D01*
X157695000Y-69996260D01*
X157695000Y-69703740D01*
X157637932Y-69416842D01*
X157525990Y-69146589D01*
X157363475Y-68903368D01*
X157156632Y-68696525D01*
X156974466Y-68574805D01*
X157091355Y-68505178D01*
X157307588Y-68310269D01*
X157481641Y-68076920D01*
X157606825Y-67814099D01*
X157651476Y-67666890D01*
X157530155Y-67437000D01*
X156337000Y-67437000D01*
X156337000Y-67457000D01*
X156083000Y-67457000D01*
X156083000Y-67437000D01*
X154889845Y-67437000D01*
X154768524Y-67666890D01*
X154813175Y-67814099D01*
X154938359Y-68076920D01*
X155112412Y-68310269D01*
X155328645Y-68505178D01*
X155445534Y-68574805D01*
X155263368Y-68696525D01*
X155056525Y-68903368D01*
X154894010Y-69146589D01*
X154782068Y-69416842D01*
X154725000Y-69703740D01*
X132295000Y-69703740D01*
X132237932Y-69416842D01*
X132125990Y-69146589D01*
X131963475Y-68903368D01*
X131756632Y-68696525D01*
X131574466Y-68574805D01*
X131691355Y-68505178D01*
X131907588Y-68310269D01*
X132081641Y-68076920D01*
X132206825Y-67814099D01*
X132251476Y-67666890D01*
X132130155Y-67437000D01*
X130937000Y-67437000D01*
X130937000Y-67457000D01*
X130683000Y-67457000D01*
X130683000Y-67437000D01*
X129489845Y-67437000D01*
X129368524Y-67666890D01*
X129413175Y-67814099D01*
X129538359Y-68076920D01*
X129712412Y-68310269D01*
X129928645Y-68505178D01*
X130045534Y-68574805D01*
X129863368Y-68696525D01*
X129656525Y-68903368D01*
X129494010Y-69146589D01*
X129382068Y-69416842D01*
X129325000Y-69703740D01*
X128930000Y-69703740D01*
X128930000Y-63888268D01*
X129000025Y-64019275D01*
X129071200Y-64106001D01*
X129094999Y-64135000D01*
X129123997Y-64158798D01*
X129368791Y-64403592D01*
X129325000Y-64623740D01*
X129325000Y-64916260D01*
X129382068Y-65203158D01*
X129494010Y-65473411D01*
X129656525Y-65716632D01*
X129863368Y-65923475D01*
X130045534Y-66045195D01*
X129928645Y-66114822D01*
X129712412Y-66309731D01*
X129538359Y-66543080D01*
X129413175Y-66805901D01*
X129368524Y-66953110D01*
X129489845Y-67183000D01*
X130683000Y-67183000D01*
X130683000Y-67163000D01*
X130937000Y-67163000D01*
X130937000Y-67183000D01*
X132130155Y-67183000D01*
X132251476Y-66953110D01*
X132206825Y-66805901D01*
X132081641Y-66543080D01*
X131907588Y-66309731D01*
X131691355Y-66114822D01*
X131574466Y-66045195D01*
X131756632Y-65923475D01*
X131963475Y-65716632D01*
X132125990Y-65473411D01*
X132237932Y-65203158D01*
X132295000Y-64916260D01*
X132295000Y-64789803D01*
X132590001Y-65084804D01*
X132590000Y-66002677D01*
X132586324Y-66040000D01*
X132590000Y-66077322D01*
X132590000Y-66077332D01*
X132600997Y-66188985D01*
X132627089Y-66275000D01*
X132644454Y-66332246D01*
X132715026Y-66464276D01*
X132749320Y-66506063D01*
X132809999Y-66580001D01*
X132839003Y-66603804D01*
X134056201Y-67821003D01*
X134079999Y-67850001D01*
X134195724Y-67944974D01*
X134327753Y-68015546D01*
X134471014Y-68059003D01*
X134582667Y-68070000D01*
X134582676Y-68070000D01*
X134619999Y-68073676D01*
X134657322Y-68070000D01*
X140266289Y-68070000D01*
X140310226Y-68113937D01*
X140479744Y-68227205D01*
X140668102Y-68305226D01*
X140868061Y-68345000D01*
X141071939Y-68345000D01*
X141271898Y-68305226D01*
X141460256Y-68227205D01*
X141629774Y-68113937D01*
X141773937Y-67969774D01*
X141887205Y-67800256D01*
X141965226Y-67611898D01*
X142005000Y-67411939D01*
X142005000Y-67349801D01*
X145799792Y-63555010D01*
X155355432Y-63555010D01*
X155263368Y-63616525D01*
X155056525Y-63823368D01*
X154894010Y-64066589D01*
X154782068Y-64336842D01*
X154725000Y-64623740D01*
X154725000Y-64916260D01*
X154782068Y-65203158D01*
X154894010Y-65473411D01*
X155056525Y-65716632D01*
X155263368Y-65923475D01*
X155445534Y-66045195D01*
X155328645Y-66114822D01*
X155112412Y-66309731D01*
X154938359Y-66543080D01*
X154813175Y-66805901D01*
X154768524Y-66953110D01*
X154889845Y-67183000D01*
X156083000Y-67183000D01*
X156083000Y-67163000D01*
X156337000Y-67163000D01*
X156337000Y-67183000D01*
X157530155Y-67183000D01*
X157651476Y-66953110D01*
X157606825Y-66805901D01*
X157481641Y-66543080D01*
X157307588Y-66309731D01*
X157091355Y-66114822D01*
X156974466Y-66045195D01*
X157156632Y-65923475D01*
X157363475Y-65716632D01*
X157525990Y-65473411D01*
X157637932Y-65203158D01*
X157695000Y-64916260D01*
X157695000Y-64623740D01*
X157637932Y-64336842D01*
X157525990Y-64066589D01*
X157363475Y-63823368D01*
X157156632Y-63616525D01*
X156982240Y-63500000D01*
X157156632Y-63383475D01*
X157363475Y-63176632D01*
X157525990Y-62933411D01*
X157637932Y-62663158D01*
X157695000Y-62376260D01*
X157695000Y-62083740D01*
X157637932Y-61796842D01*
X157525990Y-61526589D01*
X157363475Y-61283368D01*
X157156632Y-61076525D01*
X156982240Y-60960000D01*
X157156632Y-60843475D01*
X157363475Y-60636632D01*
X157525990Y-60393411D01*
X157637932Y-60123158D01*
X157695000Y-59836260D01*
X157695000Y-59543740D01*
X157637932Y-59256842D01*
X157525990Y-58986589D01*
X157363475Y-58743368D01*
X157231620Y-58611513D01*
X157304180Y-58589502D01*
X157414494Y-58530537D01*
X157511185Y-58451185D01*
X157590537Y-58354494D01*
X157649502Y-58244180D01*
X157685812Y-58124482D01*
X157698072Y-58000000D01*
X157698072Y-56300000D01*
X157685812Y-56175518D01*
X157649502Y-56055820D01*
X157590537Y-55945506D01*
X157511185Y-55848815D01*
X157414494Y-55769463D01*
X157304180Y-55710498D01*
X157184482Y-55674188D01*
X157060000Y-55661928D01*
X155360000Y-55661928D01*
X155235518Y-55674188D01*
X155115820Y-55710498D01*
X155005506Y-55769463D01*
X154908815Y-55848815D01*
X154829463Y-55945506D01*
X154770498Y-56055820D01*
X154734188Y-56175518D01*
X154721928Y-56300000D01*
X154721928Y-58000000D01*
X154734188Y-58124482D01*
X154770498Y-58244180D01*
X154829463Y-58354494D01*
X154908815Y-58451185D01*
X155005506Y-58530537D01*
X155115820Y-58589502D01*
X155188380Y-58611513D01*
X155056525Y-58743368D01*
X154894010Y-58986589D01*
X154782068Y-59256842D01*
X154725000Y-59543740D01*
X154725000Y-59836260D01*
X154768790Y-60056407D01*
X153355199Y-61470000D01*
X150764013Y-61470000D01*
X150777205Y-61450256D01*
X150855226Y-61261898D01*
X150895000Y-61061939D01*
X150895000Y-60858061D01*
X150855226Y-60658102D01*
X150777205Y-60469744D01*
X150663937Y-60300226D01*
X150519774Y-60156063D01*
X150350256Y-60042795D01*
X150161898Y-59964774D01*
X149961939Y-59925000D01*
X149758061Y-59925000D01*
X149558102Y-59964774D01*
X149369744Y-60042795D01*
X149200226Y-60156063D01*
X149156289Y-60200000D01*
X142554803Y-60200000D01*
X140264801Y-57910000D01*
X145346289Y-57910000D01*
X145390226Y-57953937D01*
X145559744Y-58067205D01*
X145748102Y-58145226D01*
X145948061Y-58185000D01*
X146151939Y-58185000D01*
X146351898Y-58145226D01*
X146540256Y-58067205D01*
X146709774Y-57953937D01*
X146853937Y-57809774D01*
X146967205Y-57640256D01*
X147045226Y-57451898D01*
X147085000Y-57251939D01*
X147085000Y-57048061D01*
X147045226Y-56848102D01*
X146967205Y-56659744D01*
X146853937Y-56490226D01*
X146709774Y-56346063D01*
X146540256Y-56232795D01*
X146351898Y-56154774D01*
X146151939Y-56115000D01*
X145948061Y-56115000D01*
X145748102Y-56154774D01*
X145559744Y-56232795D01*
X145390226Y-56346063D01*
X145346289Y-56390000D01*
X132298072Y-56390000D01*
X132298072Y-56300000D01*
X132285812Y-56175518D01*
X132249502Y-56055820D01*
X132190537Y-55945506D01*
X132111185Y-55848815D01*
X132014494Y-55769463D01*
X131904180Y-55710498D01*
X131784482Y-55674188D01*
X131660000Y-55661928D01*
X129960000Y-55661928D01*
X129835518Y-55674188D01*
X129715820Y-55710498D01*
X129605506Y-55769463D01*
X129508815Y-55848815D01*
X129429463Y-55945506D01*
X129370498Y-56055820D01*
X129334188Y-56175518D01*
X129321928Y-56300000D01*
X129321928Y-58000000D01*
X129334188Y-58124482D01*
X129370498Y-58244180D01*
X129395410Y-58290786D01*
X129124001Y-58562196D01*
X129094998Y-58585998D01*
X129039870Y-58653173D01*
X129000025Y-58701723D01*
X128994400Y-58712247D01*
X128930000Y-58832730D01*
X128930000Y-55270000D01*
X158090001Y-55270000D01*
X158090000Y-74270000D01*
%TA.AperFunction,Conductor*%
D15*
G36*
X158090000Y-74270000D02*
G01*
X128930000Y-74270000D01*
X128930000Y-71540000D01*
X133131928Y-71540000D01*
X133131928Y-73240000D01*
X133144188Y-73364482D01*
X133180498Y-73484180D01*
X133239463Y-73594494D01*
X133318815Y-73691185D01*
X133415506Y-73770537D01*
X133525820Y-73829502D01*
X133645518Y-73865812D01*
X133770000Y-73878072D01*
X135470000Y-73878072D01*
X135594482Y-73865812D01*
X135714180Y-73829502D01*
X135824494Y-73770537D01*
X135921185Y-73691185D01*
X136000537Y-73594494D01*
X136059502Y-73484180D01*
X136081513Y-73411620D01*
X136213368Y-73543475D01*
X136456589Y-73705990D01*
X136726842Y-73817932D01*
X137013740Y-73875000D01*
X137306260Y-73875000D01*
X137593158Y-73817932D01*
X137863411Y-73705990D01*
X138106632Y-73543475D01*
X138313475Y-73336632D01*
X138430000Y-73162240D01*
X138546525Y-73336632D01*
X138753368Y-73543475D01*
X138996589Y-73705990D01*
X139266842Y-73817932D01*
X139553740Y-73875000D01*
X139846260Y-73875000D01*
X140133158Y-73817932D01*
X140403411Y-73705990D01*
X140646632Y-73543475D01*
X140853475Y-73336632D01*
X140970000Y-73162240D01*
X141086525Y-73336632D01*
X141293368Y-73543475D01*
X141536589Y-73705990D01*
X141806842Y-73817932D01*
X142093740Y-73875000D01*
X142386260Y-73875000D01*
X142673158Y-73817932D01*
X142943411Y-73705990D01*
X143186632Y-73543475D01*
X143393475Y-73336632D01*
X143510000Y-73162240D01*
X143626525Y-73336632D01*
X143833368Y-73543475D01*
X144076589Y-73705990D01*
X144346842Y-73817932D01*
X144633740Y-73875000D01*
X144926260Y-73875000D01*
X145213158Y-73817932D01*
X145483411Y-73705990D01*
X145726632Y-73543475D01*
X145933475Y-73336632D01*
X146050000Y-73162240D01*
X146166525Y-73336632D01*
X146373368Y-73543475D01*
X146616589Y-73705990D01*
X146886842Y-73817932D01*
X147173740Y-73875000D01*
X147466260Y-73875000D01*
X147753158Y-73817932D01*
X148023411Y-73705990D01*
X148266632Y-73543475D01*
X148473475Y-73336632D01*
X148590000Y-73162240D01*
X148706525Y-73336632D01*
X148913368Y-73543475D01*
X149156589Y-73705990D01*
X149426842Y-73817932D01*
X149713740Y-73875000D01*
X150006260Y-73875000D01*
X150293158Y-73817932D01*
X150563411Y-73705990D01*
X150806632Y-73543475D01*
X151013475Y-73336632D01*
X151130000Y-73162240D01*
X151246525Y-73336632D01*
X151453368Y-73543475D01*
X151696589Y-73705990D01*
X151966842Y-73817932D01*
X152253740Y-73875000D01*
X152546260Y-73875000D01*
X152833158Y-73817932D01*
X153103411Y-73705990D01*
X153346632Y-73543475D01*
X153553475Y-73336632D01*
X153715990Y-73093411D01*
X153827932Y-72823158D01*
X153885000Y-72536260D01*
X153885000Y-72243740D01*
X153827932Y-71956842D01*
X153715990Y-71686589D01*
X153553475Y-71443368D01*
X153346632Y-71236525D01*
X153103411Y-71074010D01*
X152833158Y-70962068D01*
X152546260Y-70905000D01*
X152253740Y-70905000D01*
X151966842Y-70962068D01*
X151696589Y-71074010D01*
X151453368Y-71236525D01*
X151246525Y-71443368D01*
X151130000Y-71617760D01*
X151013475Y-71443368D01*
X150806632Y-71236525D01*
X150563411Y-71074010D01*
X150293158Y-70962068D01*
X150006260Y-70905000D01*
X149713740Y-70905000D01*
X149426842Y-70962068D01*
X149156589Y-71074010D01*
X148913368Y-71236525D01*
X148706525Y-71443368D01*
X148590000Y-71617760D01*
X148473475Y-71443368D01*
X148266632Y-71236525D01*
X148023411Y-71074010D01*
X147753158Y-70962068D01*
X147466260Y-70905000D01*
X147173740Y-70905000D01*
X146886842Y-70962068D01*
X146616589Y-71074010D01*
X146373368Y-71236525D01*
X146166525Y-71443368D01*
X146050000Y-71617760D01*
X145933475Y-71443368D01*
X145726632Y-71236525D01*
X145483411Y-71074010D01*
X145213158Y-70962068D01*
X144926260Y-70905000D01*
X144633740Y-70905000D01*
X144346842Y-70962068D01*
X144076589Y-71074010D01*
X143833368Y-71236525D01*
X143626525Y-71443368D01*
X143510000Y-71617760D01*
X143393475Y-71443368D01*
X143186632Y-71236525D01*
X142943411Y-71074010D01*
X142673158Y-70962068D01*
X142386260Y-70905000D01*
X142093740Y-70905000D01*
X141806842Y-70962068D01*
X141536589Y-71074010D01*
X141293368Y-71236525D01*
X141086525Y-71443368D01*
X140970000Y-71617760D01*
X140853475Y-71443368D01*
X140646632Y-71236525D01*
X140403411Y-71074010D01*
X140133158Y-70962068D01*
X139846260Y-70905000D01*
X139553740Y-70905000D01*
X139266842Y-70962068D01*
X138996589Y-71074010D01*
X138753368Y-71236525D01*
X138546525Y-71443368D01*
X138430000Y-71617760D01*
X138313475Y-71443368D01*
X138106632Y-71236525D01*
X137863411Y-71074010D01*
X137593158Y-70962068D01*
X137306260Y-70905000D01*
X137013740Y-70905000D01*
X136726842Y-70962068D01*
X136456589Y-71074010D01*
X136213368Y-71236525D01*
X136081513Y-71368380D01*
X136059502Y-71295820D01*
X136000537Y-71185506D01*
X135921185Y-71088815D01*
X135824494Y-71009463D01*
X135714180Y-70950498D01*
X135594482Y-70914188D01*
X135470000Y-70901928D01*
X133770000Y-70901928D01*
X133645518Y-70914188D01*
X133525820Y-70950498D01*
X133415506Y-71009463D01*
X133318815Y-71088815D01*
X133239463Y-71185506D01*
X133180498Y-71295820D01*
X133144188Y-71415518D01*
X133131928Y-71540000D01*
X128930000Y-71540000D01*
X128930000Y-69703740D01*
X129325000Y-69703740D01*
X129325000Y-69996260D01*
X129382068Y-70283158D01*
X129494010Y-70553411D01*
X129656525Y-70796632D01*
X129863368Y-71003475D01*
X130106589Y-71165990D01*
X130376842Y-71277932D01*
X130663740Y-71335000D01*
X130956260Y-71335000D01*
X131243158Y-71277932D01*
X131513411Y-71165990D01*
X131756632Y-71003475D01*
X131963475Y-70796632D01*
X132125990Y-70553411D01*
X132237932Y-70283158D01*
X132295000Y-69996260D01*
X132295000Y-69703740D01*
X154725000Y-69703740D01*
X154725000Y-69996260D01*
X154782068Y-70283158D01*
X154894010Y-70553411D01*
X155056525Y-70796632D01*
X155263368Y-71003475D01*
X155506589Y-71165990D01*
X155776842Y-71277932D01*
X156063740Y-71335000D01*
X156356260Y-71335000D01*
X156643158Y-71277932D01*
X156913411Y-71165990D01*
X157156632Y-71003475D01*
X157363475Y-70796632D01*
X157525990Y-70553411D01*
X157637932Y-70283158D01*
X157695000Y-69996260D01*
X157695000Y-69703740D01*
X157637932Y-69416842D01*
X157525990Y-69146589D01*
X157363475Y-68903368D01*
X157156632Y-68696525D01*
X156974466Y-68574805D01*
X157091355Y-68505178D01*
X157307588Y-68310269D01*
X157481641Y-68076920D01*
X157606825Y-67814099D01*
X157651476Y-67666890D01*
X157530155Y-67437000D01*
X156337000Y-67437000D01*
X156337000Y-67457000D01*
X156083000Y-67457000D01*
X156083000Y-67437000D01*
X154889845Y-67437000D01*
X154768524Y-67666890D01*
X154813175Y-67814099D01*
X154938359Y-68076920D01*
X155112412Y-68310269D01*
X155328645Y-68505178D01*
X155445534Y-68574805D01*
X155263368Y-68696525D01*
X155056525Y-68903368D01*
X154894010Y-69146589D01*
X154782068Y-69416842D01*
X154725000Y-69703740D01*
X132295000Y-69703740D01*
X132237932Y-69416842D01*
X132125990Y-69146589D01*
X131963475Y-68903368D01*
X131756632Y-68696525D01*
X131574466Y-68574805D01*
X131691355Y-68505178D01*
X131907588Y-68310269D01*
X132081641Y-68076920D01*
X132206825Y-67814099D01*
X132251476Y-67666890D01*
X132130155Y-67437000D01*
X130937000Y-67437000D01*
X130937000Y-67457000D01*
X130683000Y-67457000D01*
X130683000Y-67437000D01*
X129489845Y-67437000D01*
X129368524Y-67666890D01*
X129413175Y-67814099D01*
X129538359Y-68076920D01*
X129712412Y-68310269D01*
X129928645Y-68505178D01*
X130045534Y-68574805D01*
X129863368Y-68696525D01*
X129656525Y-68903368D01*
X129494010Y-69146589D01*
X129382068Y-69416842D01*
X129325000Y-69703740D01*
X128930000Y-69703740D01*
X128930000Y-63888268D01*
X129000025Y-64019275D01*
X129071200Y-64106001D01*
X129094999Y-64135000D01*
X129123997Y-64158798D01*
X129368791Y-64403592D01*
X129325000Y-64623740D01*
X129325000Y-64916260D01*
X129382068Y-65203158D01*
X129494010Y-65473411D01*
X129656525Y-65716632D01*
X129863368Y-65923475D01*
X130045534Y-66045195D01*
X129928645Y-66114822D01*
X129712412Y-66309731D01*
X129538359Y-66543080D01*
X129413175Y-66805901D01*
X129368524Y-66953110D01*
X129489845Y-67183000D01*
X130683000Y-67183000D01*
X130683000Y-67163000D01*
X130937000Y-67163000D01*
X130937000Y-67183000D01*
X132130155Y-67183000D01*
X132251476Y-66953110D01*
X132206825Y-66805901D01*
X132081641Y-66543080D01*
X131907588Y-66309731D01*
X131691355Y-66114822D01*
X131574466Y-66045195D01*
X131756632Y-65923475D01*
X131963475Y-65716632D01*
X132125990Y-65473411D01*
X132237932Y-65203158D01*
X132295000Y-64916260D01*
X132295000Y-64789803D01*
X132590001Y-65084804D01*
X132590000Y-66002677D01*
X132586324Y-66040000D01*
X132590000Y-66077322D01*
X132590000Y-66077332D01*
X132600997Y-66188985D01*
X132627089Y-66275000D01*
X132644454Y-66332246D01*
X132715026Y-66464276D01*
X132749320Y-66506063D01*
X132809999Y-66580001D01*
X132839003Y-66603804D01*
X134056201Y-67821003D01*
X134079999Y-67850001D01*
X134195724Y-67944974D01*
X134327753Y-68015546D01*
X134471014Y-68059003D01*
X134582667Y-68070000D01*
X134582676Y-68070000D01*
X134619999Y-68073676D01*
X134657322Y-68070000D01*
X140266289Y-68070000D01*
X140310226Y-68113937D01*
X140479744Y-68227205D01*
X140668102Y-68305226D01*
X140868061Y-68345000D01*
X141071939Y-68345000D01*
X141271898Y-68305226D01*
X141460256Y-68227205D01*
X141629774Y-68113937D01*
X141773937Y-67969774D01*
X141887205Y-67800256D01*
X141965226Y-67611898D01*
X142005000Y-67411939D01*
X142005000Y-67349801D01*
X145799792Y-63555010D01*
X155355432Y-63555010D01*
X155263368Y-63616525D01*
X155056525Y-63823368D01*
X154894010Y-64066589D01*
X154782068Y-64336842D01*
X154725000Y-64623740D01*
X154725000Y-64916260D01*
X154782068Y-65203158D01*
X154894010Y-65473411D01*
X155056525Y-65716632D01*
X155263368Y-65923475D01*
X155445534Y-66045195D01*
X155328645Y-66114822D01*
X155112412Y-66309731D01*
X154938359Y-66543080D01*
X154813175Y-66805901D01*
X154768524Y-66953110D01*
X154889845Y-67183000D01*
X156083000Y-67183000D01*
X156083000Y-67163000D01*
X156337000Y-67163000D01*
X156337000Y-67183000D01*
X157530155Y-67183000D01*
X157651476Y-66953110D01*
X157606825Y-66805901D01*
X157481641Y-66543080D01*
X157307588Y-66309731D01*
X157091355Y-66114822D01*
X156974466Y-66045195D01*
X157156632Y-65923475D01*
X157363475Y-65716632D01*
X157525990Y-65473411D01*
X157637932Y-65203158D01*
X157695000Y-64916260D01*
X157695000Y-64623740D01*
X157637932Y-64336842D01*
X157525990Y-64066589D01*
X157363475Y-63823368D01*
X157156632Y-63616525D01*
X156982240Y-63500000D01*
X157156632Y-63383475D01*
X157363475Y-63176632D01*
X157525990Y-62933411D01*
X157637932Y-62663158D01*
X157695000Y-62376260D01*
X157695000Y-62083740D01*
X157637932Y-61796842D01*
X157525990Y-61526589D01*
X157363475Y-61283368D01*
X157156632Y-61076525D01*
X156982240Y-60960000D01*
X157156632Y-60843475D01*
X157363475Y-60636632D01*
X157525990Y-60393411D01*
X157637932Y-60123158D01*
X157695000Y-59836260D01*
X157695000Y-59543740D01*
X157637932Y-59256842D01*
X157525990Y-58986589D01*
X157363475Y-58743368D01*
X157231620Y-58611513D01*
X157304180Y-58589502D01*
X157414494Y-58530537D01*
X157511185Y-58451185D01*
X157590537Y-58354494D01*
X157649502Y-58244180D01*
X157685812Y-58124482D01*
X157698072Y-58000000D01*
X157698072Y-56300000D01*
X157685812Y-56175518D01*
X157649502Y-56055820D01*
X157590537Y-55945506D01*
X157511185Y-55848815D01*
X157414494Y-55769463D01*
X157304180Y-55710498D01*
X157184482Y-55674188D01*
X157060000Y-55661928D01*
X155360000Y-55661928D01*
X155235518Y-55674188D01*
X155115820Y-55710498D01*
X155005506Y-55769463D01*
X154908815Y-55848815D01*
X154829463Y-55945506D01*
X154770498Y-56055820D01*
X154734188Y-56175518D01*
X154721928Y-56300000D01*
X154721928Y-58000000D01*
X154734188Y-58124482D01*
X154770498Y-58244180D01*
X154829463Y-58354494D01*
X154908815Y-58451185D01*
X155005506Y-58530537D01*
X155115820Y-58589502D01*
X155188380Y-58611513D01*
X155056525Y-58743368D01*
X154894010Y-58986589D01*
X154782068Y-59256842D01*
X154725000Y-59543740D01*
X154725000Y-59836260D01*
X154768790Y-60056407D01*
X153355199Y-61470000D01*
X150764013Y-61470000D01*
X150777205Y-61450256D01*
X150855226Y-61261898D01*
X150895000Y-61061939D01*
X150895000Y-60858061D01*
X150855226Y-60658102D01*
X150777205Y-60469744D01*
X150663937Y-60300226D01*
X150519774Y-60156063D01*
X150350256Y-60042795D01*
X150161898Y-59964774D01*
X149961939Y-59925000D01*
X149758061Y-59925000D01*
X149558102Y-59964774D01*
X149369744Y-60042795D01*
X149200226Y-60156063D01*
X149156289Y-60200000D01*
X142554803Y-60200000D01*
X140264801Y-57910000D01*
X145346289Y-57910000D01*
X145390226Y-57953937D01*
X145559744Y-58067205D01*
X145748102Y-58145226D01*
X145948061Y-58185000D01*
X146151939Y-58185000D01*
X146351898Y-58145226D01*
X146540256Y-58067205D01*
X146709774Y-57953937D01*
X146853937Y-57809774D01*
X146967205Y-57640256D01*
X147045226Y-57451898D01*
X147085000Y-57251939D01*
X147085000Y-57048061D01*
X147045226Y-56848102D01*
X146967205Y-56659744D01*
X146853937Y-56490226D01*
X146709774Y-56346063D01*
X146540256Y-56232795D01*
X146351898Y-56154774D01*
X146151939Y-56115000D01*
X145948061Y-56115000D01*
X145748102Y-56154774D01*
X145559744Y-56232795D01*
X145390226Y-56346063D01*
X145346289Y-56390000D01*
X132298072Y-56390000D01*
X132298072Y-56300000D01*
X132285812Y-56175518D01*
X132249502Y-56055820D01*
X132190537Y-55945506D01*
X132111185Y-55848815D01*
X132014494Y-55769463D01*
X131904180Y-55710498D01*
X131784482Y-55674188D01*
X131660000Y-55661928D01*
X129960000Y-55661928D01*
X129835518Y-55674188D01*
X129715820Y-55710498D01*
X129605506Y-55769463D01*
X129508815Y-55848815D01*
X129429463Y-55945506D01*
X129370498Y-56055820D01*
X129334188Y-56175518D01*
X129321928Y-56300000D01*
X129321928Y-58000000D01*
X129334188Y-58124482D01*
X129370498Y-58244180D01*
X129395410Y-58290786D01*
X129124001Y-58562196D01*
X129094998Y-58585998D01*
X129039870Y-58653173D01*
X129000025Y-58701723D01*
X128994400Y-58712247D01*
X128930000Y-58832730D01*
X128930000Y-55270000D01*
X158090001Y-55270000D01*
X158090000Y-74270000D01*
G37*
%TD.AperFunction*%
%TD*%
M02*
